<svg width="976" height="1113" viewBox="0 0 976 1113" fill="none" xmlns="http://www.w3.org/2000/svg">
<path opacity="0.82" d="M421.607 165.373C501.236 71.3218 637.038 48.3076 743.208 110.872L781.618 133.507C818.512 155.248 850.286 184.685 874.777 219.813L888.079 238.892C941.999 316.229 956.141 414.521 926.213 503.923L913.661 541.416C902.027 576.168 899.068 613.239 905.041 649.396C925.363 772.42 839.835 887.848 716.225 904.223L698.875 906.521C656.705 912.107 617.231 930.389 585.695 958.938C496.055 1040.09 356.087 1026.77 283.36 930.171L222.098 848.797L222.042 848.723L221.979 848.654L78.4932 690.852C29.7867 637.285 5.74046 565.769 12.1895 493.657C22.3788 379.721 106.146 285.984 218.225 263.101L276.848 251.131C333.355 239.594 384.341 209.389 421.607 165.373Z" fill="url(#paint0_linear_449_2937)" stroke="#82407D" style="stroke:#82407D;stroke:color(display-p3 0.5098 0.2510 0.4902);stroke-opacity:1;" stroke-width="4"/>
<g filter="url(#filter0_df_449_2937)">
<path d="M855.777 605.115H669.109C652.607 605.115 636.78 611.952 625.111 624.121C613.442 636.29 606.886 652.795 606.886 670.005V734.894H433.098L295.773 591.683V410.447H357.996C374.498 410.447 390.325 403.61 401.994 391.441C413.663 379.272 420.218 362.767 420.218 345.558V150.889C420.218 133.68 413.663 117.175 401.994 105.006C390.325 92.8365 374.498 86 357.996 86H171.327C154.825 86 138.998 92.8365 127.329 105.006C115.66 117.175 109.105 133.68 109.105 150.889V345.558C109.105 362.767 115.66 379.272 127.329 391.441C138.998 403.61 154.825 410.447 171.327 410.447H233.55V591.683L87.109 744.4C81.2765 750.485 78 758.736 78 767.339C78 775.942 81.2765 784.193 87.109 790.277L242.666 952.501C248.5 958.583 256.412 962 264.661 962C272.911 962 280.823 958.583 286.657 952.501L433.098 799.783H606.886V864.673C606.886 881.883 613.442 898.387 625.111 910.557C636.78 922.726 652.607 929.562 669.109 929.562H855.777C872.28 929.562 888.106 922.726 899.775 910.557C911.444 898.387 918 881.883 918 864.673V670.005C918 652.795 911.444 636.29 899.775 624.121C888.106 611.952 872.28 605.115 855.777 605.115ZM171.327 150.889H357.996V345.558H171.327V150.889ZM264.661 883.685L153.096 767.339L264.661 650.992L376.227 767.339L264.661 883.685ZM669.109 864.673V670.005H855.777V864.673H669.109Z" fill="url(#paint1_linear_449_2937)"/>
<path d="M171.327 87.5H357.995C374.079 87.5 389.518 94.1626 400.911 106.044C412.306 117.927 418.719 134.058 418.719 150.89V345.558C418.719 362.389 412.306 378.52 400.911 390.403C389.518 402.285 374.079 408.947 357.995 408.947H294.272V592.286L294.69 592.722L432.016 735.933L432.459 736.395H608.387V670.005C608.387 653.173 614.798 637.043 626.193 625.159C637.586 613.278 653.026 606.615 669.109 606.615H855.777C871.861 606.615 887.299 613.278 898.692 625.159C910.087 637.043 916.5 653.173 916.5 670.005V864.673C916.5 881.505 910.087 897.635 898.692 909.519C887.299 921.4 871.861 928.062 855.777 928.062H669.109C653.026 928.062 637.586 921.4 626.193 909.519C614.798 897.635 608.387 881.505 608.387 864.673V798.283H432.459L432.016 798.745L285.574 951.462C280.016 957.257 272.492 960.5 264.661 960.5C256.83 960.5 249.306 957.257 243.748 951.462H243.747L88.1914 789.239C82.6329 783.441 79.5 775.564 79.5 767.339C79.5 759.371 82.4404 751.73 87.6777 745.988L88.1914 745.438L234.633 592.722L235.05 592.286V408.947H171.327C155.243 408.947 139.805 402.284 128.412 390.403C117.017 378.52 110.604 362.389 110.604 345.558V150.89C110.604 134.058 117.017 117.927 128.412 106.044C139.627 94.3482 154.762 87.7094 170.574 87.5049L171.327 87.5ZM263.579 649.954L152.014 766.301L151.018 767.339L152.014 768.377L263.579 884.724L264.661 885.853L265.744 884.724L377.31 768.377L378.305 767.339L377.31 766.301L265.744 649.954L264.661 648.825L263.579 649.954ZM667.609 866.173H857.277V668.505H667.609V866.173ZM169.827 347.058H359.495V149.39H169.827V347.058Z" stroke="#FF82E8" style="stroke:#FF82E8;stroke:color(display-p3 1.0000 0.5096 0.9101);stroke-opacity:1;" stroke-width="3"/>
</g>
<defs>
<filter id="filter0_df_449_2937" x="48" y="56" width="900" height="936" filterUnits="userSpaceOnUse" color-interpolation-filters="sRGB">
<feFlood flood-opacity="0" result="BackgroundImageFix"/>
<feColorMatrix in="SourceAlpha" type="matrix" values="0 0 0 0 0 0 0 0 0 0 0 0 0 0 0 0 0 0 127 0" result="hardAlpha"/>
<feOffset/>
<feGaussianBlur stdDeviation="15"/>
<feComposite in2="hardAlpha" operator="out"/>
<feColorMatrix type="matrix" values="0 0 0 0 1 0 0 0 0 0.709559 0 0 0 0 0.620192 0 0 0 0.46 0"/>
<feBlend mode="normal" in2="BackgroundImageFix" result="effect1_dropShadow_449_2937"/>
<feBlend mode="normal" in="SourceGraphic" in2="effect1_dropShadow_449_2937" result="shape"/>
<feGaussianBlur stdDeviation="1" result="effect2_foregroundBlur_449_2937"/>
</filter>
<linearGradient id="paint0_linear_449_2937" x1="783.5" y1="170" x2="488" y2="1113" gradientUnits="userSpaceOnUse">
<stop stop-color="#733A6C" style="stop-color:#733A6C;stop-color:color(display-p3 0.4510 0.2275 0.4235);stop-opacity:1;"/>
<stop offset="1" stop-color="#432439" style="stop-color:#432439;stop-color:color(display-p3 0.2644 0.1424 0.2237);stop-opacity:1;"/>
</linearGradient>
<linearGradient id="paint1_linear_449_2937" x1="522.5" y1="371.5" x2="283.5" y2="710.5" gradientUnits="userSpaceOnUse">
<stop stop-color="#FF442E" style="stop-color:#FF442E;stop-color:color(display-p3 1.0000 0.2667 0.1804);stop-opacity:1;"/>
<stop offset="1" stop-color="#9F65BA" style="stop-color:#9F65BA;stop-color:color(display-p3 0.6251 0.3970 0.7308);stop-opacity:1;"/>
</linearGradient>
</defs>
</svg>
