<svg width="16" height="16" viewBox="0 0 16 16" fill="none" xmlns="http://www.w3.org/2000/svg">
<g clip-path="url(#clip0_424_5332)">
<path d="M5.75 8.1875C5.75 8.03832 5.80926 7.89524 5.91475 7.78975C6.02024 7.68426 6.16332 7.625 6.3125 7.625H9.3125C9.46168 7.625 9.60476 7.68426 9.71025 7.78975C9.81574 7.89524 9.875 8.03832 9.875 8.1875C9.875 8.33668 9.81574 8.47976 9.71025 8.58525C9.60476 8.69074 9.46168 8.75 9.3125 8.75H6.3125C6.16332 8.75 6.02024 8.69074 5.91475 8.58525C5.80926 8.47976 5.75 8.33668 5.75 8.1875ZM5 9.875C4.85082 9.875 4.70774 9.93426 4.60225 10.0398C4.49676 10.1452 4.4375 10.2883 4.4375 10.4375C4.4375 10.5867 4.49676 10.7298 4.60225 10.8352C4.70774 10.9407 4.85082 11 5 11H8C8.14918 11 8.29226 10.9407 8.39775 10.8352C8.50324 10.7298 8.5625 10.5867 8.5625 10.4375C8.5625 10.2883 8.50324 10.1452 8.39775 10.0398C8.29226 9.93426 8.14918 9.875 8 9.875H5Z" fill="white" style="fill:white;fill-opacity:1;"/>
<path d="M11.7501 1.99628C12.9906 1.99628 14.0001 2.99228 14.0001 4.24628C14.0001 4.98278 13.7466 5.69603 13.4129 6.35978C13.0806 7.01903 12.6419 7.67828 12.2264 8.30078L12.2181 8.31353C11.7921 8.95328 11.3901 9.55778 11.0924 10.148C10.7939 10.7398 10.6251 11.2685 10.6251 11.75C10.6252 11.9444 10.6756 12.1354 10.7715 12.3045C10.8673 12.4735 11.0053 12.6149 11.1721 12.7148C11.3388 12.8146 11.5286 12.8696 11.7229 12.8743C11.9172 12.879 12.1094 12.8333 12.2808 12.7416C12.4521 12.6499 12.5968 12.5154 12.7008 12.3512C12.8047 12.1869 12.8643 11.9986 12.8738 11.8045C12.8832 11.6103 12.8423 11.4171 12.7548 11.2435C12.6674 11.0699 12.5365 10.922 12.3749 10.814C12.2557 10.7291 12.1743 10.6011 12.148 10.4571C12.1216 10.3132 12.1524 10.1647 12.2338 10.0431C12.3152 9.92145 12.4408 9.83635 12.5839 9.80582C12.727 9.77528 12.8764 9.80173 13.0004 9.87953C13.4016 10.1478 13.7059 10.5379 13.8685 10.9924C14.031 11.4468 14.0431 11.9415 13.9029 12.4033C13.7628 12.8652 13.4779 13.2697 13.0902 13.5572C12.7026 13.8447 12.2327 14 11.7501 14H4.25011C3.65337 14 3.08108 13.763 2.65912 13.341C2.23716 12.9191 2.00011 12.3468 2.00011 11.75C2.00011 10.5635 2.66836 9.39878 3.33286 8.37053C3.49036 8.12903 3.64611 7.89253 3.80011 7.66103C4.15486 7.12928 4.49236 6.62153 4.76536 6.12503H3.88261C3.45061 6.12503 2.84686 6.02528 2.45236 5.53778C2.1552 5.17342 1.99517 4.71642 2.00011 4.24628C2.00011 3.64954 2.23716 3.07724 2.65912 2.65529C3.08108 2.23333 3.65337 1.99628 4.25011 1.99628H11.7501ZM11.7501 3.12128C11.4517 3.12128 11.1656 3.2398 10.9546 3.45078C10.7436 3.66176 10.6251 3.94791 10.6251 4.24628C10.6251 4.60328 10.7924 4.87178 11.1254 5.09528C11.2255 5.16241 11.3014 5.25994 11.342 5.3735C11.3825 5.48706 11.3854 5.61063 11.3504 5.72599C11.3154 5.84136 11.2442 5.94241 11.1474 6.01426C11.0505 6.0861 10.9332 6.12493 10.8126 6.12503H6.02611C5.67586 6.87728 5.17036 7.63628 4.69636 8.34728C4.55236 8.56403 4.41061 8.77553 4.27786 8.98103C3.59761 10.0333 3.12511 10.937 3.12511 11.75C3.12511 12.0484 3.24364 12.3345 3.45462 12.5455C3.66559 12.7565 3.95174 12.875 4.25011 12.875H9.80086C9.60362 12.5329 9.4999 12.1449 9.50011 11.75C9.50011 11.0158 9.75361 10.304 10.0881 9.64103C10.4189 8.98553 10.8554 8.33003 11.2694 7.70903L11.2821 7.68953C11.7081 7.04978 12.1094 6.44603 12.4079 5.85353C12.7064 5.26103 12.8751 4.73078 12.8751 4.24628C12.8751 3.61778 12.3734 3.12128 11.7501 3.12128ZM4.25011 3.12128C3.95174 3.12128 3.66559 3.2398 3.45462 3.45078C3.24364 3.66176 3.12511 3.94791 3.12511 4.24628C3.12511 4.48703 3.20011 4.67303 3.32761 4.82978C3.40036 4.91978 3.57136 5.00003 3.88261 5.00003H9.63811C9.54456 4.75985 9.49772 4.50402 9.50011 4.24628C9.50011 3.83678 9.60961 3.45203 9.80086 3.12128H4.25011Z" fill="white" style="fill:white;fill-opacity:1;"/>
</g>
<defs>
<clipPath id="clip0_424_5332">
<rect width="12" height="12" fill="white" style="fill:white;fill-opacity:1;" transform="translate(2 2)"/>
</clipPath>
</defs>
</svg>
