<svg width="34" height="34" viewBox="0 0 34 34" fill="none" xmlns="http://www.w3.org/2000/svg">
<mask id="path-1-inside-1_424_4525" fill="white">
<path d="M0 17C0 7.61116 7.61116 0 17 0V0C26.3888 0 34 7.61116 34 17V17C34 26.3888 26.3888 34 17 34V34C7.61116 34 0 26.3888 0 17V17Z"/>
</mask>
<path d="M0 17C0 7.61116 7.61116 0 17 0V0C26.3888 0 34 7.61116 34 17V17C34 26.3888 26.3888 34 17 34V34C7.61116 34 0 26.3888 0 17V17Z" fill="#FB2C36" fill-opacity="0.1" style="fill:#FB2C36;fill:color(display-p3 0.9843 0.1725 0.2118);fill-opacity:0.1;"/>
<path d="M0 17M34 17M34 17M0 17M17 0M34 17M17 34M0 17M17 34V33C8.16344 33 1 25.8366 1 17H0H-1C-1 26.9411 7.05887 35 17 35V34ZM34 17H33C33 25.8366 25.8366 33 17 33V34V35C26.9411 35 35 26.9411 35 17H34ZM17 0V1C25.8366 1 33 8.16344 33 17H34H35C35 7.05887 26.9411 -1 17 -1V0ZM17 0V-1C7.05887 -1 -1 7.05887 -1 17H0H1C1 8.16344 8.16344 1 17 1V0Z" fill="#FB2C36" fill-opacity="0.2" style="fill:#FB2C36;fill:color(display-p3 0.9843 0.1725 0.2118);fill-opacity:0.2;" mask="url(#path-1-inside-1_424_4525)"/>
<path d="M11 13H23" stroke="#E7000B" style="stroke:#E7000B;stroke:color(display-p3 0.9059 0.0000 0.0431);stroke-opacity:1;" stroke-width="1.33333" stroke-linecap="round" stroke-linejoin="round"/>
<path d="M21.6667 13V22.3333C21.6667 23 21 23.6667 20.3334 23.6667H13.6667C13 23.6667 12.3334 23 12.3334 22.3333V13" stroke="#E7000B" style="stroke:#E7000B;stroke:color(display-p3 0.9059 0.0000 0.0431);stroke-opacity:1;" stroke-width="1.33333" stroke-linecap="round" stroke-linejoin="round"/>
<path d="M14.3334 13.0002V11.6668C14.3334 11.0002 15 10.3335 15.6667 10.3335H18.3334C19 10.3335 19.6667 11.0002 19.6667 11.6668V13.0002" stroke="#E7000B" style="stroke:#E7000B;stroke:color(display-p3 0.9059 0.0000 0.0431);stroke-opacity:1;" stroke-width="1.33333" stroke-linecap="round" stroke-linejoin="round"/>
<path d="M15.6666 16.3335V20.3335" stroke="#E7000B" style="stroke:#E7000B;stroke:color(display-p3 0.9059 0.0000 0.0431);stroke-opacity:1;" stroke-width="1.33333" stroke-linecap="round" stroke-linejoin="round"/>
<path d="M18.3334 16.3335V20.3335" stroke="#E7000B" style="stroke:#E7000B;stroke:color(display-p3 0.9059 0.0000 0.0431);stroke-opacity:1;" stroke-width="1.33333" stroke-linecap="round" stroke-linejoin="round"/>
</svg>
