<svg width="34" height="34" viewBox="0 0 34 34" fill="none" xmlns="http://www.w3.org/2000/svg">
<mask id="path-1-inside-1_424_4488" fill="white">
<path d="M0 17C0 7.61116 7.61116 0 17 0V0C26.3888 0 34 7.61116 34 17V17C34 26.3888 26.3888 34 17 34V34C7.61116 34 0 26.3888 0 17V17Z"/>
</mask>
<path d="M0 17C0 7.61116 7.61116 0 17 0V0C26.3888 0 34 7.61116 34 17V17C34 26.3888 26.3888 34 17 34V34C7.61116 34 0 26.3888 0 17V17Z" fill="#FE9A00" fill-opacity="0.1" style="fill:#FE9A00;fill:color(display-p3 0.9961 0.6039 0.0000);fill-opacity:0.1;"/>
<path d="M0 17M34 17M34 17M0 17M17 0M34 17M17 34M0 17M17 34V33C8.16344 33 1 25.8366 1 17H0H-1C-1 26.9411 7.05887 35 17 35V34ZM34 17H33C33 25.8366 25.8366 33 17 33V34V35C26.9411 35 35 26.9411 35 17H34ZM17 0V1C25.8366 1 33 8.16344 33 17H34H35C35 7.05887 26.9411 -1 17 -1V0ZM17 0V-1C7.05887 -1 -1 7.05887 -1 17H0H1C1 8.16344 8.16344 1 17 1V0Z" fill="#FE9A00" fill-opacity="0.2" style="fill:#FE9A00;fill:color(display-p3 0.9961 0.6039 0.0000);fill-opacity:0.2;" mask="url(#path-1-inside-1_424_4488)"/>
<path d="M17 22.3335H23" stroke="#E17100" style="stroke:#E17100;stroke:color(display-p3 0.8824 0.4431 0.0000);stroke-opacity:1;" stroke-width="1.33333" stroke-linecap="round" stroke-linejoin="round"/>
<path d="M19.9173 11.4145C20.1827 11.1491 20.5426 11 20.9179 11C21.2933 11 21.6532 11.1491 21.9186 11.4145C22.184 11.6799 22.3331 12.0398 22.3331 12.4152C22.3331 12.7905 22.184 13.1504 21.9186 13.4158L13.9119 21.4232C13.7533 21.5818 13.5573 21.6978 13.3419 21.7605L11.4273 22.3192C11.3699 22.3359 11.3091 22.3369 11.2512 22.3221C11.1933 22.3072 11.1405 22.2771 11.0982 22.2349C11.056 22.1926 11.0259 22.1398 11.011 22.0819C10.9962 22.024 10.9972 21.9632 11.0139 21.9058L11.5726 19.9912C11.6354 19.776 11.7514 19.5802 11.9099 19.4218L19.9173 11.4145Z" stroke="#E17100" style="stroke:#E17100;stroke:color(display-p3 0.8824 0.4431 0.0000);stroke-opacity:1;" stroke-width="1.33333" stroke-linecap="round" stroke-linejoin="round"/>
</svg>
