<svg width="16" height="16" viewBox="0 0 16 16" fill="none" xmlns="http://www.w3.org/2000/svg">
<path d="M4.66667 14H3.33333C2.96667 14 2.65289 13.8696 2.392 13.6087C2.13111 13.3478 2.00044 13.0338 2 12.6667V11.3333C2 11.1444 2.064 10.9862 2.192 10.8587C2.32 10.7311 2.47822 10.6671 2.66667 10.6667C2.85511 10.6662 3.01356 10.7302 3.142 10.8587C3.27044 10.9871 3.33422 11.1453 3.33333 11.3333V12.6667H4.66667C4.85556 12.6667 5.014 12.7307 5.142 12.8587C5.27 12.9867 5.33378 13.1449 5.33333 13.3333C5.33289 13.5218 5.26889 13.6802 5.14133 13.8087C5.01378 13.9371 4.85556 14.0009 4.66667 14ZM12.6667 14H11.3333C11.1444 14 10.9862 13.936 10.8587 13.808C10.7311 13.68 10.6671 13.5218 10.6667 13.3333C10.6662 13.1449 10.7302 12.9867 10.8587 12.8587C10.9871 12.7307 11.1453 12.6667 11.3333 12.6667H12.6667V11.3333C12.6667 11.1444 12.7307 10.9862 12.8587 10.8587C12.9867 10.7311 13.1449 10.6671 13.3333 10.6667C13.5218 10.6662 13.6802 10.7302 13.8087 10.8587C13.9371 10.9871 14.0009 11.1453 14 11.3333V12.6667C14 13.0333 13.8696 13.3473 13.6087 13.6087C13.3478 13.87 13.0338 14.0004 12.6667 14ZM4.7 11.3C3.78889 10.3889 3.33333 9.28889 3.33333 8C3.33333 6.71111 3.78889 5.61111 4.7 4.7C5.61111 3.78889 6.71111 3.33333 8 3.33333C9.28889 3.33333 10.3889 3.78889 11.3 4.7C12.2111 5.61111 12.6667 6.71111 12.6667 8C12.6667 9.28889 12.2111 10.3889 11.3 11.3C10.3889 12.2111 9.28889 12.6667 8 12.6667C6.71111 12.6667 5.61111 12.2111 4.7 11.3ZM2 3.33333C2 2.96667 2.13067 2.65289 2.392 2.392C2.65333 2.13111 2.96711 2.00044 3.33333 2H4.66667C4.85556 2 5.014 2.064 5.142 2.192C5.27 2.32 5.33378 2.47822 5.33333 2.66667C5.33289 2.85511 5.26889 3.01356 5.14133 3.142C5.01378 3.27044 4.85556 3.33422 4.66667 3.33333H3.33333V4.66667C3.33333 4.85556 3.26933 5.014 3.14133 5.142C3.01333 5.27 2.85511 5.33378 2.66667 5.33333C2.47822 5.33289 2.32 5.26889 2.192 5.14133C2.064 5.01378 2 4.85556 2 4.66667V3.33333ZM12.8587 5.142C12.7307 5.014 12.6667 4.85556 12.6667 4.66667V3.33333H11.3333C11.1444 3.33333 10.9862 3.26933 10.8587 3.14133C10.7311 3.01333 10.6671 2.85511 10.6667 2.66667C10.6662 2.47822 10.7302 2.32 10.8587 2.192C10.9871 2.064 11.1453 2 11.3333 2H12.6667C13.0333 2 13.3473 2.13067 13.6087 2.392C13.87 2.65333 14.0004 2.96711 14 3.33333V4.66667C14 4.85556 13.936 5.014 13.808 5.142C13.68 5.27 13.5218 5.33378 13.3333 5.33333C13.1449 5.33289 12.9867 5.26956 12.8587 5.142Z" fill="white" style="fill:white;fill-opacity:1;"/>
</svg>
