<svg width="32" height="32" viewBox="0 0 32 32" fill="none" xmlns="http://www.w3.org/2000/svg">
<path d="M0 16C0 7.16344 7.16344 0 16 0V0C24.8366 0 32 7.16344 32 16V16C32 24.8366 24.8366 32 16 32V32C7.16344 32 0 24.8366 0 16V16Z" fill="#FE9A00" fill-opacity="0.5" style="fill:#FE9A00;fill:color(display-p3 0.9961 0.6039 0.0000);fill-opacity:0.5;"/>
<path d="M18 17.333C18.1333 16.6663 18.4667 16.1997 19 15.6663C19.6667 15.0663 20 14.1997 20 13.333C20 12.2721 19.5786 11.2547 18.8284 10.5046C18.0783 9.75444 17.0609 9.33301 16 9.33301C14.9391 9.33301 13.9217 9.75444 13.1716 10.5046C12.4214 11.2547 12 12.2721 12 13.333C12 13.9997 12.1333 14.7997 13 15.6663C13.4667 16.133 13.8667 16.6663 14 17.333" stroke="#865100" style="stroke:#865100;stroke:color(display-p3 0.5240 0.3177 0.0000);stroke-opacity:1;" stroke-width="1.33333" stroke-linecap="round" stroke-linejoin="round"/>
<path d="M14 20H18" stroke="#865100" style="stroke:#865100;stroke:color(display-p3 0.5240 0.3177 0.0000);stroke-opacity:1;" stroke-width="1.33333" stroke-linecap="round" stroke-linejoin="round"/>
<path d="M14.667 22.667H17.3337" stroke="#865100" style="stroke:#865100;stroke:color(display-p3 0.5240 0.3177 0.0000);stroke-opacity:1;" stroke-width="1.33333" stroke-linecap="round" stroke-linejoin="round"/>
</svg>
