<svg width="16" height="16" viewBox="0 0 16 16" fill="none" xmlns="http://www.w3.org/2000/svg">
<path fill-rule="evenodd" clip-rule="evenodd" d="M8.66672 9.33328C8.40637 9.59363 7.98426 9.59363 7.72391 9.33328L6.37382 7.9832C5.9833 7.59268 5.35014 7.59268 4.95961 7.9832L3.60953 9.33328C3.34918 9.59363 2.92707 9.59363 2.66672 9.33328C2.40637 9.07293 2.40637 8.65082 2.66672 8.39047L4.0168 7.04039C4.40732 6.64987 4.40732 6.0167 4.0168 5.62618L2.66672 4.2761C2.40637 4.01575 2.40637 3.59363 2.66672 3.33328C2.92707 3.07293 3.34918 3.07293 3.60953 3.33328L4.95961 4.68336C5.35014 5.07389 5.9833 5.07389 6.37383 4.68336L7.72391 3.33328C7.98426 3.07293 8.40637 3.07293 8.66672 3.33328C8.92707 3.59363 8.92707 4.01575 8.66672 4.2761L7.31664 5.62618C6.92611 6.0167 6.92611 6.64987 7.31664 7.04039L8.66672 8.39047C8.92707 8.65082 8.92707 9.07293 8.66672 9.33328ZM9.13812 13.8047L14.0001 8.94275C14.2604 8.6824 14.2604 8.26029 14.0001 7.99994C13.7397 7.73959 13.3176 7.73959 13.0572 7.99994L9.37383 11.6834C8.9833 12.0739 8.35014 12.0739 7.95961 11.6834L6.27622 9.99994C6.01587 9.73959 5.59376 9.73959 5.3334 9.99994C5.07305 10.2603 5.07305 10.6824 5.3334 10.9428L8.19531 13.8047C8.45566 14.065 8.87777 14.065 9.13812 13.8047Z" fill="white" style="fill:white;fill-opacity:1;"/>
</svg>
