<svg width="32" height="32" viewBox="0 0 32 32" fill="none" xmlns="http://www.w3.org/2000/svg">
<path d="M0 8C0 3.58172 3.58172 0 8 0H24C28.4183 0 32 3.58172 32 8V24C32 28.4183 28.4183 32 24 32H8C3.58172 32 0 28.4183 0 24V8Z" fill="#8B5CF6" style="fill:#8B5CF6;fill:color(display-p3 0.5451 0.3608 0.9647);fill-opacity:1;"/>
<path d="M14 8H9C8.44772 8 8 8.44772 8 9V17C8 17.5523 8.44772 18 9 18H14C14.5523 18 15 17.5523 15 17V9C15 8.44772 14.5523 8 14 8Z" fill="white" style="fill:white;fill-opacity:1;"/>
<path d="M23 8H18C17.4477 8 17 8.44772 17 9V17C17 17.5523 17.4477 18 18 18H23C23.5523 18 24 17.5523 24 17V9C24 8.44772 23.5523 8 23 8Z" fill="white" style="fill:white;fill-opacity:1;"/>
<path d="M11.5 13C12.3284 13 13 12.3284 13 11.5C13 10.6716 12.3284 10 11.5 10C10.6716 10 10 10.6716 10 11.5C10 12.3284 10.6716 13 11.5 13Z" fill="#8B5CF6" style="fill:#8B5CF6;fill:color(display-p3 0.5451 0.3608 0.9647);fill-opacity:1;"/>
<path d="M20.5 13C21.3284 13 22 12.3284 22 11.5C22 10.6716 21.3284 10 20.5 10C19.6716 10 19 10.6716 19 11.5C19 12.3284 19.6716 13 20.5 13Z" fill="#8B5CF6" style="fill:#8B5CF6;fill:color(display-p3 0.5451 0.3608 0.9647);fill-opacity:1;"/>
</svg>
