<svg width="16" height="16" viewBox="0 0 16 16" fill="none" xmlns="http://www.w3.org/2000/svg">
<path d="M14.5925 2.18329C14.6998 2.25905 14.7911 2.3552 14.8613 2.46626C14.9314 2.57733 14.979 2.70112 15.0013 2.83057C15.0236 2.96002 15.0201 3.0926 14.9912 3.22072C14.9622 3.34885 14.9083 3.47001 14.8325 3.57729L9.16648 11.5973C8.80648 12.1053 8.50148 12.5373 8.22648 12.8663C7.93948 13.2063 7.61648 13.5243 7.18848 13.7263C6.55422 14.0273 5.8307 14.0819 5.15848 13.8793C4.70248 13.7423 4.33848 13.4733 4.00948 13.1773C3.69448 12.8923 3.33748 12.5093 2.91948 12.0613L1.28448 10.3083C1.19141 10.213 1.11832 10.1 1.06951 9.97602C1.02071 9.85205 0.997166 9.71958 1.00027 9.58638C1.00338 9.45319 1.03307 9.32196 1.0876 9.2004C1.14213 9.07884 1.22041 8.9694 1.31782 8.87851C1.41524 8.78762 1.52984 8.71712 1.65489 8.67114C1.77993 8.62516 1.9129 8.60463 2.046 8.61076C2.17909 8.61688 2.30961 8.64955 2.4299 8.70682C2.55019 8.7641 2.65783 8.84484 2.74648 8.94429L4.35248 10.6663C4.80748 11.1533 5.10648 11.4723 5.35048 11.6933C5.59048 11.9093 5.69448 11.9523 5.73548 11.9643C5.93148 12.0243 6.14048 12.0093 6.33348 11.9183C6.37948 11.8963 6.48248 11.8333 6.69348 11.5803C6.90948 11.3233 7.16648 10.9603 7.55648 10.4093L13.1985 2.42329C13.2742 2.31598 13.3704 2.22464 13.4815 2.1545C13.5925 2.08436 13.7163 2.03679 13.8458 2.0145C13.9752 1.99221 14.1078 1.99565 14.2359 2.02461C14.364 2.05357 14.4852 2.10749 14.5925 2.18329Z" fill="white" style="fill:white;fill-opacity:1;"/>
</svg>
