<svg width="16" height="16" viewBox="0 0 16 16" fill="none" xmlns="http://www.w3.org/2000/svg">
<g clip-path="url(#clip0_11_16122)">
<path d="M4 7.33331H6.66667" stroke="white" style="stroke:white;stroke-opacity:1;" stroke-width="1.33333" stroke-linecap="round" stroke-linejoin="round"/>
<path d="M5.33325 6V8.66667" stroke="white" style="stroke:white;stroke-opacity:1;" stroke-width="1.33333" stroke-linecap="round" stroke-linejoin="round"/>
<path d="M10 8H10.0067" stroke="white" style="stroke:white;stroke-opacity:1;" stroke-width="1.33333" stroke-linecap="round" stroke-linejoin="round"/>
<path d="M12 6.66669H12.0067" stroke="white" style="stroke:white;stroke-opacity:1;" stroke-width="1.33333" stroke-linecap="round" stroke-linejoin="round"/>
<path d="M11.5466 3.33337H4.45325C3.79344 3.33353 3.15711 3.57829 2.66727 4.02035C2.17744 4.46241 1.86888 5.07037 1.80125 5.72671C1.79725 5.76137 1.79459 5.79404 1.78992 5.82804C1.73592 6.27737 1.33325 9.63737 1.33325 10.6667C1.33325 11.1971 1.54397 11.7058 1.91904 12.0809C2.29411 12.456 2.80282 12.6667 3.33325 12.6667C3.99992 12.6667 4.33325 12.3334 4.66659 12L5.60925 11.0574C5.85924 10.8073 6.19833 10.6668 6.55192 10.6667H9.44792C9.80151 10.6668 10.1406 10.8073 10.3906 11.0574L11.3333 12C11.6666 12.3334 11.9999 12.6667 12.6666 12.6667C13.197 12.6667 13.7057 12.456 14.0808 12.0809C14.4559 11.7058 14.6666 11.1971 14.6666 10.6667C14.6666 9.63671 14.2639 6.27737 14.2099 5.82804C14.2053 5.79471 14.2026 5.76137 14.1986 5.72737C14.1311 5.07091 13.8226 4.46279 13.3328 4.0206C12.8429 3.5784 12.2065 3.33354 11.5466 3.33337Z" stroke="white" style="stroke:white;stroke-opacity:1;" stroke-width="1.33333" stroke-linecap="round" stroke-linejoin="round"/>
</g>
<defs>
<clipPath id="clip0_11_16122">
<rect width="16" height="16" fill="white" style="fill:white;fill-opacity:1;"/>
</clipPath>
</defs>
</svg>
