<svg width="16" height="16" viewBox="0 0 16 16" fill="none" xmlns="http://www.w3.org/2000/svg">
<g clip-path="url(#clip0_211_2567)">
<path d="M14.0259 5.57975L13.6082 5.34758C14.2504 4.43233 14.6337 3.05683 14.153 1C14.153 1 13.0698 3.93358 10.8922 3.83675L8.34303 2.41867C8.24711 2.3654 8.14 2.33543 8.03037 2.33117H7.97145C7.86141 2.33524 7.75389 2.36522 7.65762 2.41867L5.10787 3.83675C2.93028 3.93417 1.84703 1 1.84703 1C1.36578 3.05683 1.7502 4.43233 2.39187 5.34758L1.9742 5.57975C1.87058 5.63626 1.78403 5.71955 1.72359 5.82093C1.66315 5.92231 1.63104 6.03806 1.63062 6.15608L1.64345 14.6675C1.64345 14.7859 1.70703 14.8962 1.81495 14.9539C1.86666 14.984 1.92543 14.9999 1.98528 14.9999C2.04513 14.9999 2.10391 14.984 2.15562 14.9539L5.53312 13.0849C5.74662 12.9618 5.8767 12.7454 5.8767 12.5092V8.53258C5.8767 8.29575 6.00678 8.07583 6.2197 7.95858L7.65762 7.15825C7.76269 7.09917 7.88124 7.06823 8.00178 7.06842C8.11845 7.06842 8.2392 7.09758 8.34303 7.15825L9.78095 7.95858C9.99387 8.07583 10.1239 8.29575 10.1239 8.53258V12.5092C10.1239 12.7454 10.2558 12.9636 10.4681 13.0849L13.8444 14.9539C13.8967 14.984 13.9559 14.9999 14.0162 14.9999C14.0765 14.9999 14.1358 14.984 14.188 14.9539C14.2395 14.9259 14.2825 14.8845 14.3125 14.8341C14.3424 14.7837 14.3583 14.7261 14.3584 14.6675L14.3694 6.15608C14.369 6.03806 14.3369 5.92231 14.2765 5.82093C14.216 5.71955 14.1295 5.63626 14.0259 5.57975Z" fill="#1E293B" style="fill:#1E293B;fill:color(display-p3 0.1176 0.1608 0.2314);fill-opacity:1;"/>
</g>
<defs>
<clipPath id="clip0_211_2567">
<rect width="14" height="14" fill="white" style="fill:white;fill-opacity:1;" transform="translate(1 1)"/>
</clipPath>
</defs>
</svg>
