<svg width="32" height="32" viewBox="0 0 32 32" fill="none" xmlns="http://www.w3.org/2000/svg">
<path d="M0 8C0 3.58172 3.58172 0 8 0H24C28.4183 0 32 3.58172 32 8V24C32 28.4183 28.4183 32 24 32H8C3.58172 32 0 28.4183 0 24V8Z" fill="#475569" fill-opacity="0.125" style="fill:#475569;fill:color(display-p3 0.2784 0.3333 0.4118);fill-opacity:0.125;"/>
<g clip-path="url(#clip0_415_2819)">
<path d="M12.675 14.4542C13.375 14.0458 14.25 14.2792 14.6584 14.9792M19.3834 14.4542C18.6834 14.0458 17.8084 14.2792 17.4 14.9792" stroke="#475569" style="stroke:#475569;stroke:color(display-p3 0.2784 0.3333 0.4118);stroke-opacity:1;" stroke-miterlimit="10" stroke-linecap="round" stroke-linejoin="round"/>
<path d="M16.0001 22.4458C19.1571 22.4458 21.7168 19.8862 21.7168 16.7292C21.7168 13.5722 19.1571 11.0125 16.0001 11.0125C12.8431 11.0125 10.2834 13.5722 10.2834 16.7292C10.2834 19.8862 12.8431 22.4458 16.0001 22.4458Z" stroke="#475569" style="stroke:#475569;stroke:color(display-p3 0.2784 0.3333 0.4118);stroke-opacity:1;" stroke-miterlimit="10" stroke-linecap="round" stroke-linejoin="round"/>
<path d="M17.925 18.8875C17.575 18.5375 16.875 18.3041 16.0583 18.3041C15.2417 18.3041 14.4833 18.5375 14.1917 18.8875" stroke="#475569" style="stroke:#475569;stroke:color(display-p3 0.2784 0.3333 0.4118);stroke-opacity:1;" stroke-miterlimit="10" stroke-linecap="round" stroke-linejoin="round"/>
<path d="M13.8708 16.7291C13.8128 16.7291 13.7572 16.7061 13.7162 16.6651C13.6751 16.624 13.6521 16.5684 13.6521 16.5104C13.6521 16.4524 13.6751 16.3967 13.7162 16.3557C13.7572 16.3147 13.8128 16.2916 13.8708 16.2916M13.8708 16.7291C13.9289 16.7291 13.9845 16.7061 14.0255 16.6651C14.0666 16.624 14.0896 16.5684 14.0896 16.5104C14.0896 16.4524 14.0666 16.3967 14.0255 16.3557C13.9845 16.3147 13.9289 16.2916 13.8708 16.2916M18.2458 16.7291C18.1878 16.7291 18.1322 16.7061 18.0912 16.6651C18.0501 16.624 18.0271 16.5684 18.0271 16.5104C18.0271 16.4524 18.0501 16.3967 18.0912 16.3557C18.1322 16.3147 18.1878 16.2916 18.2458 16.2916M18.2458 16.7291C18.3039 16.7291 18.3595 16.7061 18.4005 16.6651C18.4416 16.624 18.4646 16.5684 18.4646 16.5104C18.4646 16.4524 18.4416 16.3967 18.4005 16.3557C18.3595 16.3147 18.3039 16.2916 18.2458 16.2916" stroke="#475569" style="stroke:#475569;stroke:color(display-p3 0.2784 0.3333 0.4118);stroke-opacity:1;" stroke-linecap="round" stroke-linejoin="round"/>
<path d="M12.9102 11.9137C12.0188 11.9137 10.5325 11.0218 9.93807 9.53607C9.04615 11.6162 9.76715 13.7682 10.6591 14.6601M19.0917 11.9137C19.9831 11.9137 21.4688 11.0218 22.0632 9.53607C22.9557 11.6162 22.2342 13.7682 21.3428 14.6601" stroke="#475569" style="stroke:#475569;stroke:color(display-p3 0.2784 0.3333 0.4118);stroke-opacity:1;" stroke-miterlimit="10" stroke-linecap="round" stroke-linejoin="round"/>
</g>
<defs>
<clipPath id="clip0_415_2819">
<rect width="14" height="14" fill="white" style="fill:white;fill-opacity:1;" transform="translate(9 9)"/>
</clipPath>
</defs>
</svg>
