<svg width="32" height="32" viewBox="0 0 32 32" fill="none" xmlns="http://www.w3.org/2000/svg">
<path d="M0 8C0 3.58172 3.58172 0 8 0H24C28.4183 0 32 3.58172 32 8V24C32 28.4183 28.4183 32 24 32H8C3.58172 32 0 28.4183 0 24V8Z" fill="#475569" fill-opacity="0.125" style="fill:#475569;fill:color(display-p3 0.2784 0.3333 0.4118);fill-opacity:0.125;"/>
<path d="M9.8925 17.9072C9.2975 17.1344 9 16.7473 9 15.6C9 14.452 9.2975 14.0663 9.8925 13.2928C11.0804 11.75 13.0726 10 16 10C18.9274 10 20.9196 11.75 22.1075 13.2928C22.7025 14.067 23 14.4527 23 15.6C23 16.748 22.7025 17.1337 22.1075 17.9072C20.9196 19.45 18.9274 21.2 16 21.2C13.0726 21.2 11.0804 19.45 9.8925 17.9072Z" stroke="#475569" style="stroke:#475569;stroke:color(display-p3 0.2784 0.3333 0.4118);stroke-opacity:1;" stroke-width="1.2"/>
<path d="M18.0999 15.6C18.0999 16.157 17.8787 16.6911 17.4848 17.0849C17.091 17.4788 16.5569 17.7 15.9999 17.7C15.4429 17.7 14.9088 17.4788 14.515 17.0849C14.1212 16.6911 13.8999 16.157 13.8999 15.6C13.8999 15.043 14.1212 14.5089 14.515 14.1151C14.9088 13.7212 15.4429 13.5 15.9999 13.5C16.5569 13.5 17.091 13.7212 17.4848 14.1151C17.8787 14.5089 18.0999 15.043 18.0999 15.6Z" stroke="#475569" style="stroke:#475569;stroke:color(display-p3 0.2784 0.3333 0.4118);stroke-opacity:1;" stroke-width="1.2"/>
</svg>
