<svg width="16" height="16" viewBox="0 0 16 16" fill="none" xmlns="http://www.w3.org/2000/svg">
<path d="M1.8925 9.9072C1.2975 9.1344 1 8.7473 1 7.6C1 6.452 1.2975 6.0663 1.8925 5.2928C3.0804 3.75 5.0726 2 8 2C10.9274 2 12.9196 3.75 14.1075 5.2928C14.7025 6.067 15 6.4527 15 7.6C15 8.748 14.7025 9.1337 14.1075 9.9072C12.9196 11.45 10.9274 13.2 8 13.2C5.0726 13.2 3.0804 11.45 1.8925 9.9072Z" stroke="#1E293B" style="stroke:#1E293B;stroke:color(display-p3 0.1176 0.1608 0.2314);stroke-opacity:1;" stroke-width="1.2"/>
<path d="M10.0999 7.6C10.0999 8.15695 9.87865 8.6911 9.48483 9.08492C9.091 9.47875 8.55686 9.7 7.9999 9.7C7.44295 9.7 6.9088 9.47875 6.51498 9.08492C6.12115 8.6911 5.8999 8.15695 5.8999 7.6C5.8999 7.04305 6.12115 6.5089 6.51498 6.11508C6.9088 5.72125 7.44295 5.5 7.9999 5.5C8.55686 5.5 9.091 5.72125 9.48483 6.11508C9.87865 6.5089 10.0999 7.04305 10.0999 7.6Z" stroke="#1E293B" style="stroke:#1E293B;stroke:color(display-p3 0.1176 0.1608 0.2314);stroke-opacity:1;" stroke-width="1.2"/>
</svg>
