<svg width="48" height="48" viewBox="0 0 48 48" fill="none" xmlns="http://www.w3.org/2000/svg">
<path d="M0 8C0 3.58172 3.58172 0 8 0H40C44.4183 0 48 3.58172 48 8V40C48 44.4183 44.4183 48 40 48H8C3.58172 48 0 44.4183 0 40V8Z" fill="#DCFCE7" style="fill:#DCFCE7;fill:color(display-p3 0.8627 0.9882 0.9059);fill-opacity:1;"/>
<path d="M17 17.0001C16.9999 16.6482 17.0926 16.3025 17.2689 15.9979C17.4451 15.6933 17.6986 15.4406 18.0038 15.2653C18.3089 15.09 18.6549 14.9983 19.0068 14.9995C19.3587 15.0007 19.7041 15.0947 20.008 15.2721L32.005 22.2701C32.3078 22.4458 32.5591 22.6978 32.7339 23.0011C32.9088 23.3044 33.0009 23.6482 33.0012 23.9982C33.0015 24.3483 32.91 24.6923 32.7357 24.9958C32.5614 25.2994 32.3105 25.5519 32.008 25.7281L20.008 32.7281C19.7041 32.9055 19.3587 32.9995 19.0068 33.0007C18.6549 33.0019 18.3089 32.9102 18.0038 32.7349C17.6986 32.5596 17.4451 32.3069 17.2689 32.0023C17.0926 31.6977 16.9999 31.352 17 31.0001V17.0001Z" stroke="#00A63E" style="stroke:#00A63E;stroke:color(display-p3 0.0000 0.6510 0.2431);stroke-opacity:1;" stroke-width="2" stroke-linecap="round" stroke-linejoin="round"/>
</svg>
