<svg width="32" height="32" viewBox="0 0 32 32" fill="none" xmlns="http://www.w3.org/2000/svg">
<path d="M0 8C0 3.58172 3.58172 0 8 0H24C28.4183 0 32 3.58172 32 8V24C32 28.4183 28.4183 32 24 32H8C3.58172 32 0 28.4183 0 24V8Z" fill="#8B5CF6" fill-opacity="0.125" style="fill:#8B5CF6;fill:color(display-p3 0.5451 0.3608 0.9647);fill-opacity:0.125;"/>
<g clip-path="url(#clip0_164_1640)">
<g clip-path="url(#clip1_164_1640)">
<path d="M16.5534 9.45334C16.3797 9.3741 16.191 9.3331 16.0001 9.3331C15.8091 9.3331 15.6204 9.3741 15.4467 9.45334L9.73339 12.0533C9.61509 12.1055 9.51451 12.1909 9.4439 12.2992C9.37329 12.4075 9.33569 12.534 9.33569 12.6633C9.33569 12.7926 9.37329 12.9191 9.4439 13.0274C9.51451 13.1357 9.61509 13.2212 9.73339 13.2733L15.4534 15.88C15.6271 15.9592 15.8158 16.0002 16.0067 16.0002C16.1976 16.0002 16.3863 15.9592 16.5601 15.88L22.2801 13.28C22.3984 13.2278 22.4989 13.1424 22.5695 13.0341C22.6402 12.9258 22.6778 12.7993 22.6778 12.67C22.6778 12.5407 22.6402 12.4142 22.5695 12.3059C22.4989 12.1976 22.3984 12.1122 22.2801 12.06L16.5534 9.45334Z" stroke="#8B5CF6" style="stroke:#8B5CF6;stroke:color(display-p3 0.5451 0.3608 0.9647);stroke-opacity:1;" stroke-width="1.33333" stroke-linecap="round" stroke-linejoin="round"/>
<path d="M9.33338 16C9.33306 16.1275 9.36932 16.2524 9.43785 16.36C9.50639 16.4675 9.60432 16.5531 9.72004 16.6067L15.4534 19.2133C15.6262 19.2916 15.8137 19.3321 16.0034 19.3321C16.1931 19.3321 16.3806 19.2916 16.5534 19.2133L22.2734 16.6133C22.3914 16.5603 22.4914 16.4741 22.5612 16.3652C22.6311 16.2562 22.6677 16.1294 22.6667 16" stroke="#8B5CF6" style="stroke:#8B5CF6;stroke:color(display-p3 0.5451 0.3608 0.9647);stroke-opacity:1;" stroke-width="1.33333" stroke-linecap="round" stroke-linejoin="round"/>
<path d="M9.33338 19.3333C9.33306 19.4609 9.36932 19.5858 9.43785 19.6933C9.50639 19.8008 9.60432 19.8865 9.72004 19.94L15.4534 22.5467C15.6262 22.6249 15.8137 22.6654 16.0034 22.6654C16.1931 22.6654 16.3806 22.6249 16.5534 22.5467L22.2734 19.9467C22.3914 19.8936 22.4914 19.8074 22.5612 19.6985C22.6311 19.5896 22.6677 19.4627 22.6667 19.3333" stroke="#8B5CF6" style="stroke:#8B5CF6;stroke:color(display-p3 0.5451 0.3608 0.9647);stroke-opacity:1;" stroke-width="1.33333" stroke-linecap="round" stroke-linejoin="round"/>
</g>
</g>
<defs>
<clipPath id="clip0_164_1640">
<rect width="16" height="16" fill="white" style="fill:white;fill-opacity:1;" transform="translate(8 8)"/>
</clipPath>
<clipPath id="clip1_164_1640">
<rect width="16" height="16" fill="white" style="fill:white;fill-opacity:1;" transform="translate(8.00006 8)"/>
</clipPath>
</defs>
</svg>
