<svg width="16" height="16" viewBox="0 0 16 16" fill="none" xmlns="http://www.w3.org/2000/svg">
<path d="M3.33325 3.3333C3.33318 3.0987 3.39502 2.86823 3.51251 2.66516C3.63 2.4621 3.79899 2.29363 4.00242 2.17677C4.20585 2.0599 4.43651 1.99878 4.67111 1.99958C4.90572 2.00038 5.13596 2.06306 5.33859 2.1813L13.3366 6.84663C13.5384 6.96375 13.706 7.1318 13.8225 7.33397C13.9391 7.53614 14.0005 7.76537 14.0007 7.99873C14.0009 8.23209 13.9399 8.46141 13.8237 8.66379C13.7075 8.86616 13.5402 9.0345 13.3386 9.15197L5.33859 13.8186C5.13596 13.9369 4.90572 13.9996 4.67111 14.0004C4.43651 14.0012 4.20585 13.94 4.00242 13.8232C3.79899 13.7063 3.63 13.5378 3.51251 13.3348C3.39502 13.1317 3.33318 12.9012 3.33325 12.6666V3.3333Z" stroke="#1E293B" style="stroke:#1E293B;stroke:color(display-p3 0.1176 0.1608 0.2314);stroke-opacity:1;" stroke-width="1.33333" stroke-linecap="round" stroke-linejoin="round"/>
</svg>
