<svg width="16" height="16" viewBox="0 0 16 16" fill="none" xmlns="http://www.w3.org/2000/svg">
<path fill-rule="evenodd" clip-rule="evenodd" d="M5.7014 2.14609C5.79297 2.05254 5.91709 2 6.04651 2C6.17593 2 6.30006 2.05254 6.39163 2.14609L7.69395 3.47819C7.76217 3.54805 7.80861 3.63702 7.82742 3.73386C7.84623 3.83071 7.83656 3.93108 7.79963 4.0223C7.7627 4.11353 7.70017 4.19151 7.61994 4.24641C7.5397 4.3013 7.44537 4.33065 7.34884 4.33074H6.04651C4.96714 4.33074 3.93198 4.76932 3.16875 5.55C2.40552 6.33068 1.97674 7.3895 1.97674 8.49355C1.97674 9.5976 2.40552 10.6564 3.16875 11.4371C3.93198 12.2178 4.96714 12.6564 6.04651 12.6564H6.37209C6.50162 12.6564 6.62584 12.709 6.71742 12.8027C6.80901 12.8964 6.86047 13.0234 6.86047 13.1559C6.86047 13.2884 6.80901 13.4154 6.71742 13.5091C6.62584 13.6028 6.50162 13.6554 6.37209 13.6554H6.04651C4.70809 13.6554 3.42449 13.1116 2.47809 12.1436C1.53168 11.1755 1 9.86257 1 8.49355C1 7.12453 1.53168 5.81159 2.47809 4.84354C3.42449 3.8755 4.70809 3.33166 6.04651 3.33166H6.17023L5.7014 2.8521C5.60994 2.75844 5.55857 2.63148 5.55857 2.4991C5.55857 2.36672 5.60994 2.23976 5.7014 2.14609ZM9.13953 3.8312C9.13953 3.69871 9.19099 3.57165 9.28258 3.47797C9.37416 3.38429 9.49838 3.33166 9.62791 3.33166H9.95349C11.2919 3.33166 12.5755 3.8755 13.5219 4.84354C14.4683 5.81159 15 7.12453 15 8.49355C15 9.86257 14.4683 11.1755 13.5219 12.1436C12.5755 13.1116 11.2919 13.6554 9.95349 13.6554H9.82977L10.2986 14.135C10.3466 14.1807 10.3851 14.2359 10.4118 14.2972C10.4385 14.3584 10.4528 14.4246 10.454 14.4917C10.4551 14.5587 10.4431 14.6253 10.4185 14.6875C10.3939 14.7498 10.3574 14.8063 10.311 14.8537C10.2646 14.9011 10.2094 14.9385 10.1486 14.9636C10.0878 14.9888 10.0226 15.0011 9.95706 14.9999C9.89148 14.9987 9.82681 14.9841 9.76691 14.9568C9.707 14.9295 9.65308 14.8901 9.60837 14.841L8.30605 13.5089C8.23783 13.439 8.19139 13.3501 8.17258 13.2532C8.15377 13.1564 8.16344 13.056 8.20037 12.9648C8.2373 12.8736 8.29983 12.7956 8.38006 12.7407C8.4603 12.6858 8.55463 12.6565 8.65116 12.6564H9.95349C11.0329 12.6564 12.068 12.2178 12.8312 11.4371C13.5945 10.6564 14.0233 9.5976 14.0233 8.49355C14.0233 7.3895 13.5945 6.33068 12.8312 5.55C12.068 4.76932 11.0329 4.33074 9.95349 4.33074H9.62791C9.49838 4.33074 9.37416 4.27811 9.28258 4.18442C9.19099 4.09074 9.13953 3.96368 9.13953 3.8312Z" fill="#C7C7C7" style="fill:#C7C7C7;fill:color(display-p3 0.7804 0.7804 0.7804);fill-opacity:1;"/>
</svg>
