<svg width="16" height="16" viewBox="0 0 16 16" fill="none" xmlns="http://www.w3.org/2000/svg">
<g clip-path="url(#clip0_403_3314)">
<path d="M13.9999 9H10.9999C10.7347 9 10.4803 9.10536 10.2928 9.29289C10.1053 9.48043 9.99989 9.73478 9.99989 10V11H7.20689L4.99989 8.793V6H5.99989C6.26511 6 6.51946 5.89464 6.707 5.70711C6.89454 5.51957 6.99989 5.26522 6.99989 5V2C6.99989 1.73478 6.89454 1.48043 6.707 1.29289C6.51946 1.10536 6.26511 1 5.99989 1H2.99989C2.73468 1 2.48032 1.10536 2.29279 1.29289C2.10525 1.48043 1.99989 1.73478 1.99989 2V5C1.99989 5.26522 2.10525 5.51957 2.29279 5.70711C2.48032 5.89464 2.73468 6 2.99989 6H3.99989V8.793L1.64639 11.1465C1.55266 11.2403 1.5 11.3674 1.5 11.5C1.5 11.6326 1.55266 11.7597 1.64639 11.8535L4.14639 14.3535C4.24016 14.4472 4.36731 14.4999 4.49989 14.4999C4.63248 14.4999 4.75963 14.4472 4.85339 14.3535L7.20689 12H9.99989V13C9.99989 13.2652 10.1053 13.5196 10.2928 13.7071C10.4803 13.8946 10.7347 14 10.9999 14H13.9999C14.2651 14 14.5195 13.8946 14.707 13.7071C14.8945 13.5196 14.9999 13.2652 14.9999 13V10C14.9999 9.73478 14.8945 9.48043 14.707 9.29289C14.5195 9.10536 14.2651 9 13.9999 9ZM2.99989 2H5.99989V5H2.99989V2ZM4.49989 13.293L2.70689 11.5L4.49989 9.707L6.29289 11.5L4.49989 13.293ZM10.9999 13V10H13.9999V13H10.9999Z" fill="#1E293B" style="fill:#1E293B;fill:color(display-p3 0.1176 0.1608 0.2314);fill-opacity:1;"/>
</g>
<defs>
<clipPath id="clip0_403_3314">
<rect width="16" height="16" fill="white" style="fill:white;fill-opacity:1;"/>
</clipPath>
</defs>
</svg>
