<svg width="24" height="24" viewBox="0 0 24 24" fill="none" xmlns="http://www.w3.org/2000/svg">
<rect x="6" y="3" width="11" height="16" fill="white" style="fill:white;fill-opacity:1;"/>
<path d="M11.5 1C17.2991 1 22 5.73808 22 11.5832C22 17.4282 17.2991 22.1663 11.5 22.1663C5.70085 22.1663 1 17.4282 1 11.5832C1 5.73808 5.70085 1 11.5 1ZM11.5 15.8164C11.2215 15.8164 10.9545 15.9279 10.7575 16.1264C10.5606 16.3249 10.45 16.5941 10.45 16.8747C10.45 17.1554 10.5606 17.4246 10.7575 17.6231C10.9545 17.8216 11.2215 17.9331 11.5 17.9331C11.7785 17.9331 12.0455 17.8216 12.2425 17.6231C12.4394 17.4246 12.55 17.1554 12.55 16.8747C12.55 16.5941 12.4394 16.3249 12.2425 16.1264C12.0455 15.9279 11.7785 15.8164 11.5 15.8164ZM11.5 5.76242C10.4905 5.76242 9.52238 6.16661 8.80857 6.88607C8.09476 7.60554 7.69375 8.58134 7.69375 9.59882C7.69375 9.8795 7.80437 10.1487 8.00129 10.3472C8.1982 10.5456 8.46527 10.6571 8.74375 10.6571C9.02223 10.6571 9.2893 10.5456 9.48621 10.3472C9.68312 10.1487 9.79375 9.8795 9.79375 9.59882C9.7941 9.28665 9.87874 8.98047 10.0386 8.7131C10.1984 8.44573 10.4275 8.22726 10.7012 8.08111C10.9748 7.93496 11.2828 7.86664 11.5921 7.88349C11.9013 7.90033 12.2002 8.0017 12.4567 8.17673C12.7131 8.35175 12.9175 8.59383 13.0478 8.87701C13.1781 9.16019 13.2295 9.47378 13.1965 9.78417C13.1635 10.0946 13.0473 10.39 12.8603 10.6389C12.6733 10.8878 12.4227 11.0807 12.1352 11.1969C11.4254 11.4826 10.45 12.215 10.45 13.4352V13.6998C10.45 13.9805 10.5606 14.2497 10.7575 14.4481C10.9545 14.6466 11.2215 14.7581 11.5 14.7581C11.7785 14.7581 12.0455 14.6466 12.2425 14.4481C12.4394 14.2497 12.55 13.9805 12.55 13.6998C12.55 13.4416 12.6025 13.3124 12.824 13.2024L12.9154 13.16C13.7353 12.8276 14.4148 12.2181 14.8377 11.436C15.2605 10.6538 15.4002 9.74781 15.2329 8.87322C15.0655 7.99863 14.6016 7.20994 13.9205 6.64238C13.2394 6.07481 12.3837 5.76372 11.5 5.76242Z" fill="#FF9809" style="fill:#FF9809;fill:color(display-p3 1.0000 0.5978 0.0346);fill-opacity:1;"/>
</svg>
