<svg width="1159" height="1261" viewBox="0 0 1159 1261" fill="none" xmlns="http://www.w3.org/2000/svg">
<path opacity="0.68" d="M513.097 44.0596C558.785 19.2647 614.191 20.537 658.692 47.4033L1038.31 276.589C1081.21 302.488 1107.9 348.516 1109.06 398.612L1119.29 840.354C1120.49 892.126 1094.27 940.685 1050.32 968.076L663.329 1209.27C616.461 1238.48 557.149 1238.85 509.918 1210.23L107.849 966.594C64.0335 940.043 37.2706 892.533 37.2705 841.302V389.47C37.2705 335.747 66.6746 286.334 113.892 260.709L513.097 44.0596Z" fill="#256B73" fill-opacity="0.57" stroke="#357F88" style="fill:#256B73;fill:color(display-p3 0.1451 0.4196 0.4510);fill-opacity:0.57;stroke:#357F88;stroke:color(display-p3 0.2078 0.4980 0.5333);stroke-opacity:1;" stroke-width="7"/>
<g opacity="0.22" filter="url(#filter0_f_449_2933)">
<path d="M286.236 303.321C311.167 254.291 360.933 222.838 415.918 221.361L712.777 213.389C765.985 211.961 815.965 238.835 844.113 284.01L997.797 530.658C1024.93 574.203 1027.92 628.595 1005.73 674.855L880.514 935.92C857.583 983.727 811.118 1015.88 758.296 1020.48L461.745 1046.34C405.411 1051.25 351.102 1024.06 321.277 976.02L158.542 713.889C130.875 669.324 128.498 613.545 152.273 566.787L286.236 303.321Z" fill="#40858D" fill-opacity="0.95" style="fill:#40858D;fill:color(display-p3 0.2499 0.5218 0.5529);fill-opacity:0.95;"/>
</g>
<path d="M700.178 619.657C706.63 625.843 706.63 636.157 700.178 642.343L652.825 687.745C639.962 700.078 639.926 720.63 652.745 733.009C664.885 744.73 684.117 744.764 696.298 733.085L783.141 649.821C793.846 639.557 793.846 622.443 783.141 612.179L696.145 528.767C684.026 517.148 664.912 517.114 652.752 528.691C639.782 541.039 639.746 561.715 652.672 574.108L700.178 619.657ZM456.363 642.343C449.911 636.157 449.911 625.843 456.363 619.657L503.716 574.255C516.579 561.922 516.615 541.37 503.796 528.991C491.656 517.27 472.424 517.236 460.243 528.915L373.4 612.179C362.695 622.443 362.695 639.557 373.4 649.821L460.397 733.233C472.515 744.852 491.629 744.886 503.789 733.309C516.759 720.961 516.795 700.285 503.869 687.892L456.363 642.343Z" fill="#00DFFF" style="fill:#00DFFF;fill:color(display-p3 0.0000 0.8745 1.0000);fill-opacity:1;"/>
<g filter="url(#filter1_df_449_2933)">
<path d="M931.53 820.949V441.051C953.414 435.643 973.424 424.747 989.529 409.469C1005.63 394.191 1017.26 375.075 1023.23 354.063C1029.19 333.05 1029.29 310.89 1023.5 289.831C1017.71 268.772 1006.25 249.565 990.275 234.16C974.3 218.755 954.384 207.701 932.546 202.12C910.709 196.539 887.73 196.63 865.941 202.383C844.152 208.137 824.33 219.348 808.488 234.879C792.645 250.41 781.346 269.707 775.738 290.811H381.803C376.195 269.707 364.896 250.41 349.053 234.879C333.211 219.348 313.389 208.137 291.6 202.383C269.811 196.63 246.832 196.539 224.995 202.12C203.158 207.701 183.241 218.755 167.267 234.16C151.292 249.565 139.83 268.772 134.042 289.831C128.255 310.89 128.35 333.05 134.316 354.063C140.282 375.075 151.908 394.191 168.013 409.469C184.117 424.747 204.127 435.643 226.011 441.051V820.949C204.127 826.357 184.117 837.253 168.013 852.531C151.908 867.809 140.282 886.925 134.316 907.937C128.35 928.95 128.255 951.11 134.042 972.169C139.83 993.228 151.292 1012.44 167.267 1027.84C183.241 1043.25 203.158 1054.3 224.995 1059.88C246.832 1065.46 269.811 1065.37 291.6 1059.62C313.389 1053.86 333.211 1042.65 349.053 1027.12C364.896 1011.59 376.195 992.293 381.803 971.189H775.738C781.346 992.293 792.645 1011.59 808.488 1027.12C824.33 1042.65 844.152 1053.86 865.941 1059.62C887.73 1065.37 910.709 1065.46 932.546 1059.88C954.384 1054.3 974.3 1043.25 990.275 1027.84C1006.25 1012.44 1017.71 993.228 1023.5 972.169C1029.29 951.11 1029.19 928.95 1023.23 907.937C1017.26 886.925 1005.63 867.809 989.529 852.531C973.424 837.253 953.414 826.357 931.53 820.949ZM899.461 259.885C912.146 259.885 924.547 263.513 935.094 270.309C945.641 277.105 953.862 286.766 958.717 298.068C963.571 309.37 964.841 321.806 962.366 333.804C959.892 345.803 953.783 356.824 944.813 365.474C935.843 374.124 924.415 380.015 911.973 382.402C899.532 384.788 886.636 383.563 874.916 378.882C863.196 374.2 853.18 366.272 846.132 356.101C839.084 345.929 835.323 333.971 835.323 321.738C835.323 305.333 842.08 289.601 854.108 278.001C866.137 266.402 882.45 259.885 899.461 259.885ZM193.942 321.738C193.942 309.504 197.704 297.546 204.751 287.374C211.799 277.203 221.816 269.275 233.536 264.593C245.255 259.912 258.151 258.687 270.593 261.073C283.035 263.46 294.463 269.351 303.433 278.001C312.403 286.651 318.511 297.672 320.986 309.671C323.461 321.669 322.191 334.105 317.336 345.407C312.482 356.71 304.261 366.37 293.713 373.166C283.166 379.962 270.766 383.59 258.08 383.59C241.07 383.59 224.756 377.073 212.728 365.474C200.7 353.874 193.942 338.142 193.942 321.738ZM258.08 1002.11C245.395 1002.11 232.995 998.487 222.447 991.691C211.9 984.895 203.679 975.235 198.824 963.932C193.97 952.63 192.7 940.194 195.175 928.196C197.649 916.197 203.758 905.176 212.728 896.526C221.698 887.876 233.126 881.985 245.568 879.599C258.009 877.212 270.905 878.437 282.625 883.118C294.345 887.8 304.362 895.728 311.409 905.899C318.457 916.071 322.218 928.029 322.218 940.263C322.218 956.667 315.461 972.399 303.433 983.999C291.405 995.598 275.091 1002.11 258.08 1002.11ZM775.738 909.336H381.803C376.04 888.082 364.512 868.692 348.404 853.158C332.296 837.624 312.189 826.506 290.149 820.949V441.051C312.189 435.494 332.296 424.376 348.404 408.842C364.512 393.308 376.04 373.918 381.803 352.664H775.738C781.501 373.918 793.029 393.308 809.137 408.842C825.245 424.376 845.352 435.494 867.392 441.051V820.949C845.337 826.477 825.214 837.584 809.101 853.123C792.988 868.662 781.471 888.068 775.738 909.336ZM899.461 1002.11C886.775 1002.11 874.375 998.487 863.828 991.691C853.28 984.895 845.059 975.235 840.205 963.932C835.35 952.63 834.08 940.194 836.555 928.196C839.03 916.197 845.138 905.176 854.108 896.526C863.078 887.876 874.506 881.985 886.948 879.599C899.39 877.212 912.286 878.437 924.005 883.118C935.725 887.8 945.742 895.728 952.79 905.899C959.837 916.071 963.599 928.029 963.599 940.263C963.573 956.659 956.808 972.377 944.785 983.972C932.762 995.566 916.463 1002.09 899.461 1002.11Z" fill="url(#paint0_linear_449_2933)"/>
<path d="M282.996 882.189C271.098 877.437 258.007 876.194 245.379 878.616C232.75 881.039 221.145 887.019 212.033 895.807C202.921 904.594 196.712 915.795 194.195 927.994C191.679 940.193 192.971 952.838 197.905 964.327C202.84 975.816 211.194 985.629 221.905 992.531C232.616 999.433 245.205 1003.12 258.08 1003.12C275.344 1003.12 291.909 996.502 304.127 984.719C316.346 972.935 323.219 956.944 323.219 940.263C323.219 927.823 319.394 915.666 312.231 905.329C305.07 894.993 294.894 886.942 282.996 882.189ZM924.376 882.189C912.478 877.437 899.388 876.194 886.76 878.616C874.131 881.039 862.526 887.019 853.414 895.807C844.302 904.594 838.092 915.795 835.576 927.994C833.06 940.194 834.351 952.838 839.286 964.327C844.221 975.816 852.575 985.629 863.286 992.531C873.997 999.433 886.586 1003.12 899.461 1003.12H899.462C916.718 1003.09 933.267 996.469 945.479 984.691C957.693 972.913 964.573 956.937 964.599 940.264V940.263C964.599 927.823 960.773 915.666 953.611 905.329C946.45 894.993 936.274 886.942 924.376 882.189ZM270.781 260.092C258.153 257.669 245.063 258.912 233.165 263.665C221.267 268.418 211.091 276.468 203.93 286.805C196.768 297.141 192.942 309.298 192.942 321.737C192.942 338.419 199.814 354.409 212.033 366.193C224.251 377.976 240.816 384.59 258.08 384.59C270.955 384.59 283.544 380.908 294.255 374.007C304.966 367.105 313.32 357.291 318.255 345.802C323.19 334.313 324.482 321.668 321.966 309.469C319.45 297.27 313.239 286.069 304.127 277.281C295.015 268.494 283.41 262.514 270.781 260.092ZM899.461 258.885C882.197 258.885 865.632 265.498 853.414 277.281C841.195 289.065 834.322 305.056 834.322 321.737C834.322 334.177 838.148 346.334 845.31 356.671C852.471 367.007 862.647 375.058 874.545 379.811C886.443 384.563 899.534 385.806 912.162 383.384C924.791 380.961 936.396 374.981 945.508 366.193C954.62 357.406 960.829 346.205 963.346 334.006C965.862 321.807 964.571 309.162 959.636 297.673C954.701 286.184 946.347 276.371 935.636 269.469C924.925 262.567 912.336 258.885 899.461 258.885ZM227.012 440.268L226.251 440.08C204.533 434.713 184.678 423.9 168.701 408.743C152.724 393.587 141.194 374.627 135.277 353.79C129.361 332.953 129.268 310.978 135.007 290.096C140.746 269.213 152.114 250.162 167.961 234.88C183.808 219.597 203.57 208.628 225.242 203.089C246.914 197.55 269.721 197.64 291.345 203.351C312.969 209.061 332.637 220.186 348.354 235.594C364.07 251.001 375.275 270.141 380.836 291.068L381.033 291.812H776.508L776.705 291.068C782.266 270.141 793.471 251.001 809.188 235.594C824.904 220.186 844.572 209.061 866.196 203.351C887.82 197.64 910.627 197.55 932.299 203.089C953.971 208.628 973.733 219.597 989.58 234.88C1005.43 250.162 1016.8 269.213 1022.53 290.096C1028.27 310.978 1028.18 332.953 1022.26 353.79C1016.35 374.627 1004.82 393.587 988.84 408.743C972.863 423.9 953.008 434.713 931.29 440.08L930.53 440.268V821.732L931.29 821.92C953.008 827.287 972.863 838.1 988.84 853.257C1004.82 868.413 1016.35 887.373 1022.26 908.21C1028.18 929.047 1028.27 951.022 1022.53 971.904C1016.8 992.787 1005.43 1011.84 989.58 1027.12C973.733 1042.4 953.971 1053.37 932.299 1058.91C910.627 1064.45 887.82 1064.36 866.196 1058.65C844.572 1052.94 824.904 1041.81 809.188 1026.41C793.471 1011 782.266 991.859 776.705 970.932L776.508 970.188H381.033L380.836 970.932C375.275 991.859 364.07 1011 348.354 1026.41C332.637 1041.81 312.969 1052.94 291.345 1058.65C269.721 1064.36 246.914 1064.45 225.242 1058.91C203.57 1053.37 183.808 1042.4 167.961 1027.12C152.114 1011.84 140.746 992.787 135.007 971.904C129.268 951.022 129.361 929.047 135.277 908.21C141.194 887.373 152.724 868.413 168.701 853.257C184.678 838.1 204.533 827.287 226.251 821.92L227.012 821.732V440.268ZM868.392 440.271L867.637 440.081C845.764 434.566 825.812 423.533 809.831 408.122C793.851 392.711 782.419 373.479 776.704 352.402L776.504 351.664H381.038L380.838 352.402C375.123 373.479 363.69 392.711 347.71 408.122C331.73 423.533 311.778 434.566 289.905 440.081L289.149 440.271V821.729L289.905 821.919C311.778 827.434 331.73 838.467 347.71 853.878C363.69 869.289 375.123 888.521 380.838 909.598L381.038 910.336H776.505L776.704 909.597C782.388 888.506 793.81 869.258 809.795 853.843C825.78 838.427 845.747 827.405 867.635 821.919L868.392 821.729V440.271Z" stroke="#00FAFF" style="stroke:#00FAFF;stroke:color(display-p3 0.0000 0.9804 1.0000);stroke-opacity:1;" stroke-width="2"/>
</g>
<defs>
<filter id="filter0_f_449_2933" x="130.181" y="207.535" width="896.108" height="845.171" filterUnits="userSpaceOnUse" color-interpolation-filters="sRGB">
<feFlood flood-opacity="0" result="BackgroundImageFix"/>
<feBlend mode="normal" in="SourceGraphic" in2="BackgroundImageFix" result="shape"/>
<feGaussianBlur stdDeviation="2.9" result="effect1_foregroundBlur_449_2933"/>
</filter>
<filter id="filter1_df_449_2933" x="99.7705" y="168" width="958" height="926" filterUnits="userSpaceOnUse" color-interpolation-filters="sRGB">
<feFlood flood-opacity="0" result="BackgroundImageFix"/>
<feColorMatrix in="SourceAlpha" type="matrix" values="0 0 0 0 0 0 0 0 0 0 0 0 0 0 0 0 0 0 127 0" result="hardAlpha"/>
<feOffset/>
<feGaussianBlur stdDeviation="15"/>
<feComposite in2="hardAlpha" operator="out"/>
<feColorMatrix type="matrix" values="0 0 0 0 0 0 0 0 0 0.847059 0 0 0 0 0.964706 0 0 0 0.41 0"/>
<feBlend mode="normal" in2="BackgroundImageFix" result="effect1_dropShadow_449_2933"/>
<feBlend mode="normal" in="SourceGraphic" in2="effect1_dropShadow_449_2933" result="shape"/>
<feGaussianBlur stdDeviation="1.5" result="effect2_foregroundBlur_449_2933"/>
</filter>
<linearGradient id="paint0_linear_449_2933" x1="998.27" y1="244.5" x2="255.77" y2="859.5" gradientUnits="userSpaceOnUse">
<stop stop-color="#00F0FD" style="stop-color:#00F0FD;stop-color:color(display-p3 0.0000 0.9412 0.9922);stop-opacity:1;"/>
<stop offset="0.519231" stop-color="#0081FF" style="stop-color:#0081FF;stop-color:color(display-p3 0.0000 0.5059 1.0000);stop-opacity:1;"/>
<stop offset="1" stop-color="#005F7C" style="stop-color:#005F7C;stop-color:color(display-p3 0.0000 0.3725 0.4863);stop-opacity:1;"/>
</linearGradient>
</defs>
</svg>
