<svg width="34" height="34" viewBox="0 0 34 34" fill="none" xmlns="http://www.w3.org/2000/svg">
<mask id="path-1-inside-1_424_4465" fill="white">
<path d="M0 17C0 7.61116 7.61116 0 17 0V0C26.3888 0 34 7.61116 34 17V17C34 26.3888 26.3888 34 17 34V34C7.61116 34 0 26.3888 0 17V17Z"/>
</mask>
<path d="M0 17C0 7.61116 7.61116 0 17 0V0C26.3888 0 34 7.61116 34 17V17C34 26.3888 26.3888 34 17 34V34C7.61116 34 0 26.3888 0 17V17Z" fill="#00C950" fill-opacity="0.1" style="fill:#00C950;fill:color(display-p3 0.0000 0.7882 0.3137);fill-opacity:0.1;"/>
<path d="M0 17M34 17M34 17M0 17M17 0M34 17M17 34M0 17M17 34V33C8.16344 33 1 25.8366 1 17H0H-1C-1 26.9411 7.05887 35 17 35V34ZM34 17H33C33 25.8366 25.8366 33 17 33V34V35C26.9411 35 35 26.9411 35 17H34ZM17 0V1C25.8366 1 33 8.16344 33 17H34H35C35 7.05887 26.9411 -1 17 -1V0ZM17 0V-1C7.05887 -1 -1 7.05887 -1 17H0H1C1 8.16344 8.16344 1 17 1V0Z" fill="#00C950" fill-opacity="0.2" style="fill:#00C950;fill:color(display-p3 0.0000 0.7882 0.3137);fill-opacity:0.2;" mask="url(#path-1-inside-1_424_4465)"/>
<path d="M12.3334 17H21.6667" stroke="#00A63E" style="stroke:#00A63E;stroke:color(display-p3 0.0000 0.6510 0.2431);stroke-opacity:1;" stroke-width="1.33333" stroke-linecap="round" stroke-linejoin="round"/>
<path d="M17 12.3335V21.6668" stroke="#00A63E" style="stroke:#00A63E;stroke:color(display-p3 0.0000 0.6510 0.2431);stroke-opacity:1;" stroke-width="1.33333" stroke-linecap="round" stroke-linejoin="round"/>
</svg>
