<svg width="16" height="16" viewBox="0 0 16 16" fill="none" xmlns="http://www.w3.org/2000/svg">
<path d="M6.00659 9.33335H1.99992C1.63325 9.33335 1.33325 9.63335 1.33325 10C1.33325 10.3667 1.63325 10.6667 1.99992 10.6667H6.00659V11.86C6.00659 12.16 6.36658 12.3067 6.57325 12.0934L8.42659 10.2334C8.55325 10.1 8.55325 9.89335 8.42659 9.76002L6.57325 7.90002C6.36658 7.68669 6.00659 7.84002 6.00659 8.13335V9.33335ZM9.99325 7.86002V6.66669H13.9999C14.3666 6.66669 14.6666 6.36669 14.6666 6.00002C14.6666 5.63335 14.3666 5.33335 13.9999 5.33335H9.99325V4.14002C9.99325 3.84002 9.63325 3.69335 9.42659 3.90669L7.57325 5.76669C7.44658 5.90002 7.44658 6.10669 7.57325 6.24002L9.42659 8.10002C9.47358 8.14609 9.53316 8.17722 9.59782 8.18948C9.66248 8.20174 9.72932 8.19458 9.78992 8.16892C9.85052 8.14325 9.90217 8.10022 9.93835 8.04525C9.97454 7.99028 9.99364 7.92583 9.99325 7.86002Z" fill="#475569" style="fill:#475569;fill:color(display-p3 0.2784 0.3333 0.4118);fill-opacity:1;"/>
</svg>
