<svg width="16" height="16" viewBox="0 0 16 16" fill="none" xmlns="http://www.w3.org/2000/svg">
<path d="M1.33325 12.148C1.45925 12.7147 1.71325 13.3334 2.37459 13.3334C3.52125 13.3334 3.80725 12.148 4.66659 8.00002C5.52592 3.85202 5.81259 2.66669 6.95859 2.66669C7.62059 2.66669 7.87392 3.28535 7.99992 3.85202M3.27792 6.51869H6.95792M13.9999 8.00002C14.9199 10.1687 14.8566 11.32 13.9999 13.3334M7.99992 8.00002C7.07992 10.1687 7.14325 11.32 7.99992 13.3334" stroke="white" style="stroke:white;stroke-opacity:1;" stroke-linecap="round" stroke-linejoin="round"/>
<path d="M9.52661 9.33338C10.0619 9.31338 10.3679 9.37605 10.5486 9.69738C10.7673 10.144 11.3193 11.3787 11.4553 11.648C11.5379 11.766 11.6473 11.936 11.9999 11.9914L12.4733 12" stroke="white" style="stroke:white;stroke-opacity:1;" stroke-linecap="round"/>
<path d="M12.6686 9.33337C11.9192 9.33337 11.3912 10.192 11.0392 10.624C10.5272 11.296 9.95123 12.0334 9.33057 12" stroke="white" style="stroke:white;stroke-opacity:1;" stroke-linecap="round"/>
</svg>
