<svg width="16" height="16" viewBox="0 0 16 16" fill="none" xmlns="http://www.w3.org/2000/svg">
<g clip-path="url(#clip0_447_3931)">
<path d="M9.43886 7.35386C9.79571 7.71071 9.79571 8.28929 9.43886 8.64614L9.1475 8.9375C8.95262 9.13238 8.95206 9.44818 9.14625 9.64375C9.34142 9.8403 9.65914 9.84086 9.855 9.645L10.5018 8.99823C11.0531 8.44692 11.0531 7.55308 10.5018 7.00177L9.8525 6.3525C9.65762 6.15762 9.34182 6.15706 9.14625 6.35125C8.9497 6.54642 8.94914 6.86414 9.145 7.06L9.43886 7.35386ZM6.56114 8.64614C6.20429 8.28929 6.20429 7.71071 6.56114 7.35386L6.8525 7.0625C7.04738 6.86762 7.04794 6.55182 6.85375 6.35625C6.65858 6.1597 6.34086 6.15914 6.145 6.355L5.49823 7.00177C4.94692 7.55308 4.94692 8.44692 5.49823 8.99823L6.1475 9.6475C6.34238 9.84238 6.65818 9.84294 6.85375 9.64875C7.0503 9.45358 7.05086 9.13586 6.855 8.94L6.56114 8.64614Z" fill="#1E293B" style="fill:#1E293B;fill:color(display-p3 0.1176 0.1608 0.2314);fill-opacity:1;"/>
<path d="M13.5 11.071V4.92898C13.8412 4.84154 14.1532 4.66538 14.4043 4.41837C14.6554 4.17136 14.8367 3.86231 14.9297 3.52259C15.0227 3.18288 15.0242 2.82459 14.934 2.48412C14.8437 2.14365 14.665 1.83312 14.4159 1.58407C14.1669 1.33501 13.8564 1.15629 13.5159 1.06606C13.1754 0.975826 12.8171 0.977296 12.4774 1.07032C12.1377 1.16334 11.8286 1.3446 11.5816 1.5957C11.3346 1.84679 11.1585 2.15878 11.071 2.49998H4.92904C4.8416 2.15878 4.66544 1.84679 4.41843 1.5957C4.17143 1.3446 3.86237 1.16334 3.52266 1.07032C3.18294 0.977296 2.82465 0.975826 2.48419 1.06606C2.14372 1.15629 1.83319 1.33501 1.58413 1.58407C1.33507 1.83312 1.15635 2.14365 1.06612 2.48412C0.975887 2.82459 0.977357 3.18288 1.07038 3.52259C1.1634 3.86231 1.34466 4.17136 1.59576 4.41837C1.84685 4.66538 2.15884 4.84154 2.50004 4.92898V11.071C2.15884 11.1584 1.84685 11.3346 1.59576 11.5816C1.34466 11.8286 1.1634 12.1376 1.07038 12.4774C0.977357 12.8171 0.975887 13.1754 1.06612 13.5158C1.15635 13.8563 1.33507 14.1668 1.58413 14.4159C1.83319 14.6649 2.14372 14.8437 2.48419 14.9339C2.82465 15.0241 3.18294 15.0227 3.52266 14.9296C3.86237 14.8366 4.17143 14.6554 4.41843 14.4043C4.66544 14.1532 4.8416 13.8412 4.92904 13.5H11.071C11.1585 13.8412 11.3346 14.1532 11.5816 14.4043C11.8286 14.6554 12.1377 14.8366 12.4774 14.9296C12.8171 15.0227 13.1754 15.0241 13.5159 14.9339C13.8564 14.8437 14.1669 14.6649 14.4159 14.4159C14.665 14.1668 14.8437 13.8563 14.934 13.5158C15.0242 13.1754 15.0227 12.8171 14.9297 12.4774C14.8367 12.1376 14.6554 11.8286 14.4043 11.5816C14.1532 11.3346 13.8412 11.1584 13.5 11.071ZM13 1.99998C13.1978 1.99998 13.3912 2.05863 13.5556 2.16851C13.7201 2.27839 13.8482 2.43457 13.9239 2.61729C13.9996 2.80002 14.0194 3.00109 13.9808 3.19507C13.9422 3.38905 13.847 3.56723 13.7071 3.70708C13.5673 3.84694 13.3891 3.94218 13.1951 3.98076C13.0011 4.01935 12.8001 3.99954 12.6174 3.92386C12.4346 3.84817 12.2784 3.72 12.1686 3.55555C12.0587 3.3911 12 3.19776 12 2.99998C12 2.73476 12.1054 2.48041 12.2929 2.29287C12.4805 2.10533 12.7348 1.99998 13 1.99998ZM2.00004 2.99998C2.00004 2.80219 2.05869 2.60886 2.16857 2.44441C2.27845 2.27996 2.43463 2.15178 2.61735 2.0761C2.80008 2.00041 3.00115 1.98061 3.19513 2.01919C3.38911 2.05778 3.56729 2.15302 3.70714 2.29287C3.847 2.43272 3.94224 2.6109 3.98082 2.80489C4.01941 2.99887 3.9996 3.19993 3.92392 3.38266C3.84823 3.56539 3.72006 3.72156 3.55561 3.83145C3.39116 3.94133 3.19782 3.99998 3.00004 3.99998C2.73482 3.99998 2.48047 3.89462 2.29293 3.70708C2.10539 3.51955 2.00004 3.26519 2.00004 2.99998ZM3.00004 14C2.80226 14 2.60892 13.9413 2.44447 13.8314C2.28002 13.7216 2.15185 13.5654 2.07616 13.3827C2.00047 13.1999 1.98067 12.9989 2.01925 12.8049C2.05784 12.6109 2.15308 12.4327 2.29293 12.2929C2.43278 12.153 2.61097 12.0578 2.80495 12.0192C2.99893 11.9806 3.19999 12.0004 3.38272 12.0761C3.56545 12.1518 3.72163 12.28 3.83151 12.4444C3.94139 12.6089 4.00004 12.8022 4.00004 13C4.00004 13.2652 3.89468 13.5195 3.70714 13.7071C3.51961 13.8946 3.26525 14 3.00004 14ZM11.071 12.5H4.92904C4.83919 12.1564 4.65945 11.8429 4.4083 11.5917C4.15716 11.3406 3.84366 11.1608 3.50004 11.071V4.92898C3.84366 4.83913 4.15716 4.65939 4.4083 4.40824C4.65945 4.1571 4.83919 3.8436 4.92904 3.49998H11.071C11.1609 3.8436 11.3406 4.1571 11.5918 4.40824C11.8429 4.65939 12.1564 4.83913 12.5 4.92898V11.071C12.1562 11.1603 11.8424 11.3399 11.5912 11.5911C11.34 11.8424 11.1604 12.1561 11.071 12.5ZM13 14C12.8023 14 12.6089 13.9413 12.4445 13.8314C12.28 13.7216 12.1518 13.5654 12.0762 13.3827C12.0005 13.1999 11.9807 12.9989 12.0193 12.8049C12.0578 12.6109 12.1531 12.4327 12.2929 12.2929C12.4328 12.153 12.611 12.0578 12.8049 12.0192C12.9989 11.9806 13.2 12.0004 13.3827 12.0761C13.5654 12.1518 13.7216 12.28 13.8315 12.4444C13.9414 12.6089 14 12.8022 14 13C13.9996 13.2651 13.8942 13.5192 13.7067 13.7066C13.5193 13.8941 13.2651 13.9996 13 14Z" fill="#1E293B" style="fill:#1E293B;fill:color(display-p3 0.1176 0.1608 0.2314);fill-opacity:1;"/>
</g>
<defs>
<clipPath id="clip0_447_3931">
<rect width="16" height="16" fill="white" style="fill:white;fill-opacity:1;" transform="matrix(1 0 0 -1 0 16)"/>
</clipPath>
</defs>
</svg>
