<svg width="16" height="16" viewBox="0 0 16 16" fill="none" xmlns="http://www.w3.org/2000/svg">
<path d="M1.5 7.937V8.071C2.06 8.218 2.5 8.658 2.5 9.5V13.5H4.5V14.5H2.5C1.9485 14.5 1.5 14.0515 1.5 13.5V9.5C1.5 8.725 1.06 8.5 0.5 8.5V7.5C1.06 7.5 1.5 7.2615 1.5 6.5V2.5C1.5 1.949 1.9485 1.5 2.5 1.5H4.5V2.5H2.5V6.5C2.5 7.342 2.06 7.79 1.5 7.937ZM14.5 7.937V8.071C13.94 8.218 13.5 8.658 13.5 9.5V13.5H11.5V14.5H13.5C14.0515 14.5 14.5 14.0515 14.5 13.5V9.5C14.5 8.725 14.94 8.5 15.5 8.5V7.5C14.94 7.5 14.5 7.2615 14.5 6.5V2.5C14.5 1.949 14.0515 1.5 13.5 1.5H11.5V2.5H13.5V6.5C13.5 7.342 13.94 7.79 14.5 7.937ZM5.17 10.947C4.96567 10.947 4.80283 10.8892 4.6815 10.7735C4.5605 10.6575 4.5 10.5 4.5 10.301C4.5 10.1127 4.55667 9.96067 4.67 9.845C4.78267 9.729 4.93333 9.67117 5.122 9.6715C5.294 9.6715 5.427 9.72183 5.521 9.8225C5.61533 9.9235 5.6625 10.0638 5.6625 10.2435V10.2765L5.719 10.317C5.8 10.274 5.90367 10.1783 6.03 10.03C6.15667 9.882 6.29667 9.692 6.45 9.46C6.60333 9.228 6.76733 8.96383 6.942 8.6675C7.204 8.2225 7.2935 8.05 7.471 7.7045L7.447 6.3135C7.44167 5.9685 7.35 5.796 7.172 5.796C7.06433 5.796 6.942 5.843 6.805 5.937C6.668 6.03167 6.489 6.18917 6.268 6.4095L6.018 6.1675C6.36233 5.7745 6.665 5.4905 6.926 5.3155C7.187 5.1405 7.44683 5.053 7.7055 5.053C8.0065 5.053 8.22717 5.162 8.3675 5.38C8.5075 5.598 8.58283 5.952 8.5935 6.442L8.6095 7.354H8.69C8.92167 6.90733 9.129 6.536 9.312 6.24C9.495 5.944 9.66867 5.7085 9.833 5.5335C9.99667 5.35883 10.158 5.235 10.317 5.162C10.476 5.089 10.647 5.05267 10.83 5.053C11.0343 5.053 11.1972 5.11083 11.3185 5.2265C11.4395 5.3425 11.5 5.5 11.5 5.699C11.5 5.88767 11.4433 6.03967 11.33 6.155C11.2173 6.271 11.0667 6.32883 10.878 6.3285C10.706 6.3285 10.5728 6.28083 10.4785 6.1855C10.3845 6.0905 10.3375 5.95567 10.3375 5.781V5.7235L10.281 5.683C10.211 5.72033 10.1193 5.812 10.006 5.958C9.89333 6.103 9.7655 6.29167 9.6225 6.524C9.45961 6.79158 9.30487 7.06404 9.1585 7.341C8.9915 7.65367 8.8165 7.996 8.6335 8.368L8.658 9.6865C8.663 10.0315 8.75467 10.204 8.933 10.204C9.04 10.204 9.16217 10.157 9.2995 10.063C9.43683 9.96867 9.61583 9.81117 9.8365 9.5905L10.087 9.8325C9.91467 10.0318 9.75467 10.2015 9.607 10.3415C9.45867 10.4815 9.31583 10.5958 9.1785 10.6845C8.9725 10.8175 8.9095 10.8395 8.783 10.8825C8.6565 10.9255 8.5285 10.947 8.3995 10.947C8.09817 10.947 7.8775 10.838 7.7375 10.62C7.5975 10.402 7.52217 10.048 7.5115 9.558L7.4955 8.646H7.4225C7.22908 9.01142 7.01766 9.36703 6.789 9.7115C6.62265 9.96406 6.43478 10.2018 6.2275 10.422C6.05017 10.6053 5.87517 10.7387 5.7025 10.822C5.5305 10.9053 5.353 10.947 5.17 10.947Z" fill="#475569" style="fill:#475569;fill:color(display-p3 0.2784 0.3333 0.4118);fill-opacity:1;"/>
</svg>
