<svg width="45" height="45" viewBox="0 0 45 45" fill="none" xmlns="http://www.w3.org/2000/svg">
<rect width="45" height="45" rx="9" fill="#8B5CF6" fill-opacity="0.125" style="fill:#8B5CF6;fill:color(display-p3 0.5451 0.3608 0.9647);fill-opacity:0.125;"/>
<g clip-path="url(#clip0_323_2579)">
<path d="M22.4999 29.1666C20.7318 29.1666 19.0361 28.4643 17.7859 27.214C16.5356 25.9638 15.8333 24.2681 15.8333 22.5C15.8333 20.7319 16.5356 19.0362 17.7859 17.7859C19.0361 16.5357 20.7318 15.8333 22.4999 15.8333C24.268 15.8333 25.9637 16.4655 27.214 17.5907C28.4642 18.7159 29.1666 20.242 29.1666 21.8333C29.1666 22.7174 28.8154 23.5652 28.1903 24.1903C27.5652 24.8155 26.7173 25.1666 25.8333 25.1666H24.3333C24.1166 25.1666 23.9042 25.227 23.7199 25.3409C23.5356 25.4548 23.3866 25.6178 23.2898 25.8116C23.1929 26.0054 23.1518 26.2223 23.1713 26.4381C23.1908 26.6539 23.2699 26.86 23.3999 27.0333L23.5999 27.3C23.7299 27.4733 23.8091 27.6794 23.8285 27.8952C23.848 28.111 23.807 28.3279 23.7101 28.5217C23.6132 28.7155 23.4642 28.8785 23.2799 28.9924C23.0956 29.1063 22.8832 29.1666 22.6666 29.1666H22.4999Z" stroke="#8B5CF6" style="stroke:#8B5CF6;stroke:color(display-p3 0.5451 0.3608 0.9647);stroke-opacity:1;" stroke-width="1.33333" stroke-linecap="round" stroke-linejoin="round"/>
<path d="M23.5001 19.1667C23.6842 19.1667 23.8334 19.0174 23.8334 18.8333C23.8334 18.6492 23.6842 18.5 23.5001 18.5C23.316 18.5 23.1667 18.6492 23.1667 18.8333C23.1667 19.0174 23.316 19.1667 23.5001 19.1667Z" fill="#8B5CF6" stroke="#8B5CF6" style="fill:#8B5CF6;fill:color(display-p3 0.5451 0.3608 0.9647);fill-opacity:1;stroke:#8B5CF6;stroke:color(display-p3 0.5451 0.3608 0.9647);stroke-opacity:1;" stroke-width="1.33333" stroke-linecap="round" stroke-linejoin="round"/>
<path d="M26.1666 21.8333C26.3507 21.8333 26.4999 21.6841 26.4999 21.5C26.4999 21.3159 26.3507 21.1666 26.1666 21.1666C25.9825 21.1666 25.8333 21.3159 25.8333 21.5C25.8333 21.6841 25.9825 21.8333 26.1666 21.8333Z" fill="#8B5CF6" stroke="#8B5CF6" style="fill:#8B5CF6;fill:color(display-p3 0.5451 0.3608 0.9647);fill-opacity:1;stroke:#8B5CF6;stroke:color(display-p3 0.5451 0.3608 0.9647);stroke-opacity:1;" stroke-width="1.33333" stroke-linecap="round" stroke-linejoin="round"/>
<path d="M18.8333 23.1667C19.0174 23.1667 19.1667 23.0174 19.1667 22.8333C19.1667 22.6492 19.0174 22.5 18.8333 22.5C18.6492 22.5 18.5 22.6492 18.5 22.8333C18.5 23.0174 18.6492 23.1667 18.8333 23.1667Z" fill="#8B5CF6" stroke="#8B5CF6" style="fill:#8B5CF6;fill:color(display-p3 0.5451 0.3608 0.9647);fill-opacity:1;stroke:#8B5CF6;stroke:color(display-p3 0.5451 0.3608 0.9647);stroke-opacity:1;" stroke-width="1.33333" stroke-linecap="round" stroke-linejoin="round"/>
<path d="M20.1666 19.8333C20.3507 19.8333 20.4999 19.6841 20.4999 19.5C20.4999 19.3159 20.3507 19.1666 20.1666 19.1666C19.9825 19.1666 19.8333 19.3159 19.8333 19.5C19.8333 19.6841 19.9825 19.8333 20.1666 19.8333Z" fill="#8B5CF6" stroke="#8B5CF6" style="fill:#8B5CF6;fill:color(display-p3 0.5451 0.3608 0.9647);fill-opacity:1;stroke:#8B5CF6;stroke:color(display-p3 0.5451 0.3608 0.9647);stroke-opacity:1;" stroke-width="1.33333" stroke-linecap="round" stroke-linejoin="round"/>
</g>
<defs>
<clipPath id="clip0_323_2579">
<rect width="16" height="16" fill="white" style="fill:white;fill-opacity:1;" transform="translate(14.5 14.5)"/>
</clipPath>
</defs>
</svg>
