<svg width="16" height="16" viewBox="0 0 16 16" fill="none" xmlns="http://www.w3.org/2000/svg">
<g clip-path="url(#clip0_472_7791)">
<path d="M6.918 9.799L2.098 14.618L4.978 14.188L5.126 15.175L0 15.943L0.768 10.817L1.756 10.965L1.303 13.998L6.239 9.063C6.09578 8.79556 6.01518 8.49907 6.00328 8.19593C5.99139 7.89279 6.04851 7.5909 6.17034 7.31306C6.29216 7.03521 6.47551 6.78868 6.70654 6.59205C6.93758 6.39542 7.21026 6.25384 7.504 6.178V0H8.504V6.178C8.79743 6.25412 9.06975 6.39585 9.30045 6.59251C9.53115 6.78917 9.7142 7.03563 9.8358 7.31331C9.95741 7.591 10.0144 7.89266 10.0025 8.19557C9.99056 8.49848 9.91005 8.79473 9.767 9.062L14.632 13.928L14.189 10.965L15.177 10.818L15.945 15.944L10.818 15.175L10.968 14.187L13.918 14.628L9.088 9.798C8.776 10.001 8.403 10.118 8.003 10.118C7.603 10.118 7.23 10.002 6.918 9.799Z" fill="white" style="fill:white;fill-opacity:1;"/>
</g>
<defs>
<clipPath id="clip0_472_7791">
<rect width="16" height="16" fill="white" style="fill:white;fill-opacity:1;"/>
</clipPath>
</defs>
</svg>
