<svg width="48" height="48" viewBox="0 0 48 48" fill="none" xmlns="http://www.w3.org/2000/svg">
<path d="M0 8C0 3.58172 3.58172 0 8 0H40C44.4183 0 48 3.58172 48 8V40C48 44.4183 44.4183 48 40 48H8C3.58172 48 0 44.4183 0 40V8Z" fill="#8B5CF6" fill-opacity="0.2" style="fill:#8B5CF6;fill:color(display-p3 0.5451 0.3608 0.9647);fill-opacity:0.2;"/>
<path d="M18 23H22" stroke="#8B5CF6" style="stroke:#8B5CF6;stroke:color(display-p3 0.5451 0.3608 0.9647);stroke-opacity:1;" stroke-width="2" stroke-linecap="round" stroke-linejoin="round"/>
<path d="M20 21V25" stroke="#8B5CF6" style="stroke:#8B5CF6;stroke:color(display-p3 0.5451 0.3608 0.9647);stroke-opacity:1;" stroke-width="2" stroke-linecap="round" stroke-linejoin="round"/>
<path d="M27 24H27.01" stroke="#8B5CF6" style="stroke:#8B5CF6;stroke:color(display-p3 0.5451 0.3608 0.9647);stroke-opacity:1;" stroke-width="2" stroke-linecap="round" stroke-linejoin="round"/>
<path d="M30 22H30.01" stroke="#8B5CF6" style="stroke:#8B5CF6;stroke:color(display-p3 0.5451 0.3608 0.9647);stroke-opacity:1;" stroke-width="2" stroke-linecap="round" stroke-linejoin="round"/>
<path d="M29.32 17H18.68C17.6903 17.0002 16.7358 17.3674 16.001 18.0305C15.2663 18.6936 14.8034 19.6055 14.702 20.59C14.696 20.642 14.692 20.691 14.685 20.742C14.604 21.416 14 26.456 14 28C14 28.7956 14.3161 29.5587 14.8787 30.1213C15.4413 30.6839 16.2044 31 17 31C18 31 18.5 30.5 19 30L20.414 28.586C20.789 28.2109 21.2976 28.0001 21.828 28H26.172C26.7024 28.0001 27.211 28.2109 27.586 28.586L29 30C29.5 30.5 30 31 31 31C31.7956 31 32.5587 30.6839 33.1213 30.1213C33.6839 29.5587 34 28.7956 34 28C34 26.455 33.396 21.416 33.315 20.742C33.308 20.692 33.304 20.642 33.298 20.591C33.1968 19.6063 32.7341 18.6941 31.9993 18.0308C31.2645 17.3675 30.3099 17.0003 29.32 17Z" stroke="#8B5CF6" style="stroke:#8B5CF6;stroke:color(display-p3 0.5451 0.3608 0.9647);stroke-opacity:1;" stroke-width="2" stroke-linecap="round" stroke-linejoin="round"/>
</svg>
