<svg width="16" height="16" viewBox="0 0 16 16" fill="none" xmlns="http://www.w3.org/2000/svg">
<path d="M8.75 9.5C8.75 9.845 8.4135 10.125 8 10.125C7.5865 10.125 7.25 9.845 7.25 9.5H8.75Z" fill="#475569" style="fill:#475569;fill:color(display-p3 0.2784 0.3333 0.4118);fill-opacity:1;"/>
<path d="M8.36798 4.86998C8.47466 4.79234 8.55404 4.68293 8.59475 4.55742C8.63545 4.43191 8.63539 4.29674 8.59456 4.17126C8.55374 4.04579 8.47426 3.93645 8.3675 3.85892C8.26073 3.78138 8.13217 3.73962 8.00023 3.73962C7.86828 3.73962 7.73972 3.78138 7.63296 3.85892C7.5262 3.93645 7.44671 4.04579 7.40589 4.17126C7.36507 4.29674 7.365 4.43191 7.40571 4.55742C7.44641 4.68293 7.52579 4.79234 7.63248 4.86998L7.38248 5.89648C6.70648 5.38398 5.62048 5.32248 4.88248 5.98448L4.28898 6.52198C4.15697 6.48615 4.01685 6.49461 3.89011 6.54607C3.76338 6.59753 3.65702 6.68914 3.58736 6.80686C3.5177 6.92458 3.48859 7.0619 3.50448 7.19776C3.52037 7.33362 3.58039 7.46051 3.67533 7.55898C3.77028 7.65744 3.8949 7.72204 4.0301 7.74287C4.16529 7.76369 4.30358 7.73959 4.42375 7.67426C4.54393 7.60893 4.63935 7.50598 4.69539 7.3812C4.75143 7.25642 4.76498 7.1167 4.73398 6.98348L5.18898 6.71748C5.56148 6.50148 5.99998 6.73898 5.99998 7.13448V9.08248L4.76748 10.221L4.76498 10.223C4.51548 10.4565 4.41398 10.8305 4.58298 11.1745C4.74448 11.5095 5.08698 11.65 5.38148 11.65H6.00098L6.00198 12.179V12.188C6.01698 12.5715 6.29048 12.84 6.57948 12.9445C6.72817 12.9998 6.88895 13.0144 7.04517 12.9867C7.20138 12.959 7.34736 12.89 7.46798 12.787L7.99798 12.381L8.52598 12.7895C8.76648 12.987 9.11098 13.0615 9.43148 12.9365C9.70148 12.8335 9.99998 12.5565 9.99998 12.1545V11.65H10.647C11.037 11.638 11.314 11.364 11.4295 11.1115L11.431 11.1085C11.583 10.771 11.474 10.401 11.218 10.173L9.99998 9.08498V7.49998L9.99948 7.13498C9.99948 6.73898 10.503 6.50148 10.8745 6.71748L11.2745 6.95098C11.2366 7.08185 11.2426 7.22149 11.2914 7.34866C11.3403 7.47583 11.4293 7.58356 11.5451 7.65545C11.6608 7.72734 11.7968 7.75945 11.9325 7.74691C12.0681 7.73436 12.1959 7.67784 12.2965 7.58594C12.3971 7.49405 12.4648 7.37181 12.4895 7.23784C12.5142 7.10387 12.4945 6.9655 12.4333 6.84379C12.3721 6.72209 12.2728 6.62371 12.1505 6.56363C12.0283 6.50355 11.8897 6.48506 11.756 6.51098L11.175 5.98498C10.42 5.30598 9.29798 5.38798 8.62748 5.93748L8.36798 4.86998ZM9.49598 7.82398V9.04198H9.49998V9.17148C9.49998 9.49498 9.36448 9.80548 9.13098 10.045C8.86198 10.3185 8.46348 10.5 7.99998 10.5C7.54298 10.5 7.14648 10.32 6.87648 10.0485C6.63898 9.80848 6.49998 9.49548 6.49998 9.17148V9.04198H6.50398V7.83198C6.89248 7.62698 7.42098 7.49998 8.00548 7.49998C8.58348 7.49998 9.10848 7.62298 9.49598 7.82398ZM9.92098 9.68448L10.885 10.546C10.996 10.645 11.028 10.786 10.975 10.9035C10.917 11.0305 10.785 11.1455 10.6315 11.15H9.49998V12.155C9.49998 12.291 9.38898 12.4185 9.25148 12.47C9.18272 12.4964 9.10814 12.5037 9.03555 12.4913C8.96297 12.4789 8.89507 12.4472 8.83898 12.3995L7.99998 11.75L7.15248 12.3995C7.09893 12.4481 7.03294 12.4808 6.96186 12.494C6.89078 12.5073 6.81743 12.5005 6.74998 12.4745C6.60698 12.423 6.50748 12.305 6.50198 12.169L6.49998 11.15H5.38148C5.22798 11.15 5.09048 11.0775 5.03248 10.955C4.96898 10.8285 5.00098 10.687 5.10648 10.5885L6.08148 9.68798C6.32598 10.445 7.09398 11 7.99998 11C8.87798 11 9.62098 10.487 9.89098 9.76998C9.90161 9.74188 9.91162 9.71354 9.92098 9.68498" fill="#475569" style="fill:#475569;fill:color(display-p3 0.2784 0.3333 0.4118);fill-opacity:1;"/>
<path d="M3.25 0.5C2.91848 0.5 2.60054 0.631696 2.36612 0.866117C2.1317 1.10054 2 1.41848 2 1.75V14.25C2 14.5815 2.1317 14.8995 2.36612 15.1339C2.60054 15.3683 2.91848 15.5 3.25 15.5H12.75C13.0815 15.5 13.3995 15.3683 13.6339 15.1339C13.8683 14.8995 14 14.5815 14 14.25V1.75C14 1.41848 13.8683 1.10054 13.6339 0.866117C13.3995 0.631696 13.0815 0.5 12.75 0.5H3.25ZM3 1.75C3 1.6837 3.02634 1.62011 3.07322 1.57322C3.12011 1.52634 3.1837 1.5 3.25 1.5H12.75C12.8163 1.5 12.8799 1.52634 12.9268 1.57322C12.9737 1.62011 13 1.6837 13 1.75V14.25C13 14.3163 12.9737 14.3799 12.9268 14.4268C12.8799 14.4737 12.8163 14.5 12.75 14.5H3.25C3.1837 14.5 3.12011 14.4737 3.07322 14.4268C3.02634 14.3799 3 14.3163 3 14.25V1.75Z" fill="#475569" style="fill:#475569;fill:color(display-p3 0.2784 0.3333 0.4118);fill-opacity:1;"/>
</svg>
