<svg width="32" height="32" viewBox="0 0 32 32" fill="none" xmlns="http://www.w3.org/2000/svg">
<path d="M0 8C0 3.58172 3.58172 0 8 0H24C28.4183 0 32 3.58172 32 8V24C32 28.4183 28.4183 32 24 32H8C3.58172 32 0 28.4183 0 24V8Z" fill="#475569" fill-opacity="0.125" style="fill:#475569;fill:color(display-p3 0.2784 0.3333 0.4118);fill-opacity:0.125;"/>
<g clip-path="url(#clip0_415_2819)">
<g clip-path="url(#clip1_415_2819)">
<path d="M16.5534 9.45337C16.3797 9.37413 16.191 9.33313 16.0001 9.33313C15.8091 9.33313 15.6204 9.37413 15.4467 9.45337L9.73339 12.0534C9.61509 12.1055 9.51451 12.191 9.4439 12.2993C9.37329 12.4076 9.33569 12.5341 9.33569 12.6634C9.33569 12.7927 9.37329 12.9192 9.4439 13.0275C9.51451 13.1358 9.61509 13.2212 9.73339 13.2734L15.4534 15.88C15.6271 15.9593 15.8158 16.0003 16.0067 16.0003C16.1976 16.0003 16.3863 15.9593 16.5601 15.88L22.2801 13.28C22.3984 13.2279 22.4989 13.1424 22.5695 13.0341C22.6402 12.9258 22.6778 12.7993 22.6778 12.67C22.6778 12.5407 22.6402 12.4142 22.5695 12.3059C22.4989 12.1976 22.3984 12.1122 22.2801 12.06L16.5534 9.45337Z" stroke="#475569" style="stroke:#475569;stroke:color(display-p3 0.2784 0.3333 0.4118);stroke-opacity:1;" stroke-width="1.33333" stroke-linecap="round" stroke-linejoin="round"/>
<path d="M9.33325 16C9.33294 16.1275 9.3692 16.2524 9.43773 16.36C9.50627 16.4675 9.6042 16.5531 9.71992 16.6067L15.4533 19.2133C15.6261 19.2916 15.8136 19.3321 16.0033 19.3321C16.1929 19.3321 16.3805 19.2916 16.5533 19.2133L22.2733 16.6133C22.3913 16.5603 22.4913 16.4741 22.5611 16.3652C22.631 16.2562 22.6676 16.1294 22.6666 16" stroke="#475569" style="stroke:#475569;stroke:color(display-p3 0.2784 0.3333 0.4118);stroke-opacity:1;" stroke-width="1.33333" stroke-linecap="round" stroke-linejoin="round"/>
<path d="M9.33325 19.3333C9.33294 19.4608 9.3692 19.5858 9.43773 19.6933C9.50627 19.8008 9.6042 19.8864 9.71992 19.94L15.4533 22.5466C15.6261 22.6249 15.8136 22.6654 16.0033 22.6654C16.1929 22.6654 16.3805 22.6249 16.5533 22.5466L22.2733 19.9466C22.3913 19.8936 22.4913 19.8074 22.5611 19.6985C22.631 19.5896 22.6676 19.4627 22.6666 19.3333" stroke="#475569" style="stroke:#475569;stroke:color(display-p3 0.2784 0.3333 0.4118);stroke-opacity:1;" stroke-width="1.33333" stroke-linecap="round" stroke-linejoin="round"/>
</g>
</g>
<defs>
<clipPath id="clip0_415_2819">
<rect width="16" height="16" fill="white" style="fill:white;fill-opacity:1;" transform="translate(8 8)"/>
</clipPath>
<clipPath id="clip1_415_2819">
<rect width="16" height="16" fill="white" style="fill:white;fill-opacity:1;" transform="translate(8 8)"/>
</clipPath>
</defs>
</svg>
