<svg width="45" height="45" viewBox="0 0 45 45" fill="none" xmlns="http://www.w3.org/2000/svg">
<rect width="45" height="45" rx="9" fill="#8B5CF6" fill-opacity="0.125" style="fill:#8B5CF6;fill:color(display-p3 0.5451 0.3608 0.9647);fill-opacity:0.125;"/>
<path d="M23.1667 28.5H28.5001" stroke="#8B5CF6" style="stroke:#8B5CF6;stroke:color(display-p3 0.5451 0.3608 0.9647);stroke-opacity:1;" stroke-width="1.33333" stroke-linecap="round" stroke-linejoin="round"/>
<path d="M28.6161 19.0413C28.9686 18.6889 29.1666 18.211 29.1667 17.7126C29.1668 17.2141 28.9688 16.7361 28.6165 16.3837C28.2641 16.0312 27.7861 15.8331 27.2877 15.8331C26.7893 15.833 26.3113 16.0309 25.9588 16.3833L17.0615 25.2827C16.9067 25.437 16.7922 25.627 16.7281 25.836L15.8475 28.7373C15.8302 28.795 15.8289 28.8562 15.8437 28.9146C15.8585 28.9729 15.8887 29.0261 15.9313 29.0687C15.9739 29.1112 16.0272 29.1414 16.0856 29.156C16.1439 29.1707 16.2052 29.1693 16.2628 29.152L19.1648 28.272C19.3736 28.2085 19.5636 28.0947 19.7181 27.9407L28.6161 19.0413Z" stroke="#8B5CF6" style="stroke:#8B5CF6;stroke:color(display-p3 0.5451 0.3608 0.9647);stroke-opacity:1;" stroke-width="1.33333" stroke-linecap="round" stroke-linejoin="round"/>
</svg>
