<svg width="16" height="16" viewBox="0 0 16 16" fill="none" xmlns="http://www.w3.org/2000/svg">
<path d="M7.99256 1.39886C7.79956 1.39886 7.60653 1.44211 7.45703 1.52861L2.68349 4.28986C2.38443 4.46286 2.38443 4.73643 2.68349 4.90943L7.45703 7.67068C7.75609 7.84368 8.22899 7.84368 8.52803 7.67068L13.3016 4.90943C13.6006 4.73646 13.6006 4.46286 13.3016 4.2899L8.52803 1.52865C8.37849 1.44208 8.18553 1.39886 7.99256 1.39886ZM7.96681 3.05855C8.24847 3.06159 8.5017 3.12609 8.72649 3.25205C8.88024 3.33822 8.98093 3.43653 9.02856 3.54699C9.0746 3.65659 9.07731 3.80102 9.03668 3.98027L8.98668 4.15858C8.95356 4.28619 8.94668 4.37796 8.96606 4.4339C8.98385 4.489 9.02804 4.53633 9.09862 4.5759L9.20456 4.63521L8.16596 5.21708L8.05056 5.15249C7.92189 5.08043 7.83978 4.99897 7.80421 4.90811C7.76709 4.81641 7.77328 4.67052 7.82278 4.47046L7.8704 4.29083C7.89811 4.18385 7.90082 4.09617 7.87853 4.02777C7.85811 3.95827 7.81182 3.9033 7.73965 3.86286C7.6298 3.80132 7.49823 3.77921 7.34496 3.79652C7.19011 3.81298 7.03021 3.86741 6.86528 3.9598C6.70992 4.04684 6.56878 4.1558 6.44184 4.28668C6.31336 4.41674 6.20308 4.56557 6.11099 4.73318L5.37193 4.31905C5.53812 4.15218 5.70141 4.00621 5.86181 3.88115C6.02222 3.75615 6.19162 3.64365 6.36999 3.54365C6.83799 3.28144 7.2732 3.12553 7.67562 3.07593C7.7722 3.06356 7.8695 3.05774 7.96687 3.05852L7.96681 3.05855ZM9.55296 4.83043L10.3909 5.29993L9.35234 5.8818L8.51434 5.41233L9.55296 4.83043ZM2.36474 5.43249C2.18496 5.42765 2.06274 5.56799 2.06274 5.81624V10.7442C2.06274 11.0896 2.29931 11.4993 2.59837 11.6721L7.18993 14.3236C7.48899 14.4962 7.72556 14.3597 7.72556 14.0143V9.08624C7.72556 8.74086 7.48899 8.33124 7.18993 8.15849L2.59837 5.50702C2.51431 5.45843 2.43509 5.4343 2.36474 5.43243V5.43249ZM13.6389 5.43255C13.5686 5.43443 13.4894 5.45849 13.4053 5.50708L8.81362 8.15855C8.51456 8.33127 8.27799 8.74099 8.27799 9.08636V14.0145C8.27799 14.3598 8.51456 14.4963 8.81362 14.3236L13.4054 11.6722C13.7044 11.4995 13.9409 11.0898 13.9409 10.7444V5.8163C13.9409 5.56811 13.8187 5.4278 13.6389 5.43261V5.43255ZM3.59062 7.4248C3.79541 7.46751 3.98243 7.51973 4.15168 7.58146C4.32135 7.6434 4.4853 7.71999 4.64168 7.81036C5.0546 8.0488 5.36937 8.32049 5.58599 8.62543C5.80262 8.92855 5.91093 9.25188 5.91093 9.59543C5.91093 9.77168 5.87793 9.91089 5.81193 10.0131C5.74591 10.1134 5.63337 10.1977 5.47431 10.266L5.31181 10.326C5.19672 10.3711 5.12141 10.4175 5.08587 10.4654C5.05035 10.5113 5.03259 10.5748 5.03259 10.6557V10.7771L4.11618 10.248V10.1158C4.11616 9.9683 4.14408 9.85403 4.19993 9.77299C4.25579 9.69014 4.37341 9.61235 4.55281 9.53965L4.71531 9.47696C4.81177 9.43915 4.88199 9.39157 4.92599 9.33424C4.97164 9.27791 4.99447 9.20836 4.99449 9.12561C4.99449 8.99976 4.95387 8.8783 4.87262 8.76124C4.79139 8.64238 4.678 8.54093 4.53246 8.45686C4.39538 8.37774 4.24729 8.32282 4.08818 8.29211C3.9291 8.25961 3.76324 8.2529 3.59062 8.27196V7.4248ZM12.0137 7.69377C12.0613 7.69377 12.1054 7.69891 12.146 7.70918C12.3626 7.76216 12.4709 7.96043 12.4709 8.30399C12.4709 8.48024 12.4379 8.65756 12.3719 8.83596C12.3059 9.01254 12.1934 9.22679 12.0343 9.47871L11.8718 9.72633C11.7567 9.90429 11.6814 10.0377 11.6459 10.1266C11.6103 10.2136 11.5926 10.2976 11.5926 10.3785V10.4999L10.6762 11.0291V10.8969C10.6762 10.7494 10.7041 10.6028 10.7599 10.4573C10.8158 10.3099 10.9335 10.0963 11.1128 9.81652L11.2753 9.56621C11.3718 9.41696 11.442 9.28827 11.486 9.18015C11.5316 9.07102 11.5545 8.97508 11.5545 8.89233C11.5545 8.76646 11.5139 8.6919 11.4327 8.66865C11.3514 8.64363 11.238 8.6731 11.0925 8.75708C10.9554 8.83627 10.8073 8.95236 10.6482 9.10536C10.4892 9.25659 10.3233 9.44139 10.1507 9.65974V8.81255C10.3555 8.6188 10.5425 8.45507 10.7116 8.32136C10.8809 8.18768 11.0442 8.07542 11.2016 7.98458C11.5372 7.79083 11.8079 7.69389 12.0138 7.69374L12.0137 7.69377ZM4.11615 10.6474L5.03259 11.1764V12.1369L4.11618 11.6079V10.6474L4.11615 10.6474ZM11.5926 10.8992V11.8597L10.6762 12.3888V11.4284L11.5926 10.8992Z" fill="#475569" style="fill:#475569;fill:color(display-p3 0.2784 0.3333 0.4118);fill-opacity:1;"/>
</svg>
