<svg width="16" height="16" viewBox="0 0 16 16" fill="none" xmlns="http://www.w3.org/2000/svg">
<g clip-path="url(#clip0_447_4260)">
<path d="M15.0389 5.83258L12.8754 5.83531C11.392 5.83719 10.0974 4.89502 8.87433 4.05564C8.76202 3.97856 8.64634 3.90592 8.52751 3.83796C7.70572 3.36793 6.76737 3.14089 5.82161 3.18325C4.87585 3.22561 3.96155 3.53563 3.18508 4.07725C2.47479 4.57271 1.90653 5.24333 1.53434 6.02225C1.47136 6.15405 1.50326 6.31013 1.60686 6.4131C1.67418 6.48 1.76527 6.5175 1.86017 6.51737L4.04505 6.51438C4.96504 6.51313 5.71187 7.25792 5.71312 8.17792C5.71438 9.09791 4.96959 9.84474 4.04959 9.84599L1.86536 9.84898C1.77006 9.84911 1.67872 9.88709 1.61142 9.95456C1.50823 10.058 1.4769 10.2143 1.54027 10.3459C1.91467 11.1239 2.48486 11.793 3.19662 12.2864C3.97469 12.8259 4.88995 13.1333 5.83592 13.173C6.78188 13.2126 7.71965 12.9828 8.54012 12.5103C8.65845 12.4422 8.77365 12.3694 8.88546 12.2922C10.1068 11.4491 11.3994 10.5029 12.8835 10.501L15.0458 10.4983M11.7105 8.17067L15.0421 8.16612" stroke="#1E293B" style="stroke:#1E293B;stroke:color(display-p3 0.1176 0.1608 0.2314);stroke-opacity:1;" stroke-linecap="square"/>
</g>
<defs>
<clipPath id="clip0_447_4260">
<rect width="16" height="16" fill="white" style="fill:white;fill-opacity:1;" transform="matrix(1 0 0 -1 0 16)"/>
</clipPath>
</defs>
</svg>
