<svg width="16" height="16" viewBox="0 0 16 16" fill="none" xmlns="http://www.w3.org/2000/svg">
<g clip-path="url(#clip0_48_4744)">
<g clip-path="url(#clip1_48_4744)">
<path d="M8.55339 1.45337C8.37968 1.37413 8.19098 1.33313 8.00006 1.33313C7.80913 1.33313 7.62043 1.37413 7.44672 1.45337L1.73339 4.05337C1.61509 4.10553 1.51451 4.19097 1.4439 4.29927C1.37329 4.40758 1.33569 4.53408 1.33569 4.66337C1.33569 4.79266 1.37329 4.91916 1.4439 5.02746C1.51451 5.13577 1.61509 5.22121 1.73339 5.27337L7.45339 7.88003C7.6271 7.95927 7.8158 8.00027 8.00672 8.00027C8.19765 8.00027 8.38635 7.95927 8.56006 7.88003L14.2801 5.28003C14.3984 5.22787 14.4989 5.14244 14.5695 5.03413C14.6402 4.92582 14.6778 4.79932 14.6778 4.67003C14.6778 4.54074 14.6402 4.41424 14.5695 4.30594C14.4989 4.19763 14.3984 4.1122 14.2801 4.06003L8.55339 1.45337Z" stroke="white" style="stroke:white;stroke-opacity:1;" stroke-width="1.33333" stroke-linecap="round" stroke-linejoin="round"/>
<path d="M1.33325 8C1.33294 8.12751 1.3692 8.25244 1.43773 8.35997C1.50627 8.46749 1.6042 8.55311 1.71992 8.60667L7.45325 11.2133C7.62605 11.2916 7.81356 11.3321 8.00325 11.3321C8.19294 11.3321 8.38045 11.2916 8.55325 11.2133L14.2733 8.61333C14.3913 8.56029 14.4913 8.47406 14.5611 8.36516C14.631 8.25625 14.6676 8.12937 14.6666 8" stroke="white" style="stroke:white;stroke-opacity:1;" stroke-width="1.33333" stroke-linecap="round" stroke-linejoin="round"/>
<path d="M1.33325 11.3333C1.33294 11.4608 1.3692 11.5858 1.43773 11.6933C1.50627 11.8008 1.6042 11.8864 1.71992 11.94L7.45325 14.5466C7.62605 14.6249 7.81356 14.6654 8.00325 14.6654C8.19294 14.6654 8.38045 14.6249 8.55325 14.5466L14.2733 11.9466C14.3913 11.8936 14.4913 11.8074 14.5611 11.6985C14.631 11.5896 14.6676 11.4627 14.6666 11.3333" stroke="white" style="stroke:white;stroke-opacity:1;" stroke-width="1.33333" stroke-linecap="round" stroke-linejoin="round"/>
</g>
</g>
<defs>
<clipPath id="clip0_48_4744">
<rect width="16" height="16" fill="white" style="fill:white;fill-opacity:1;"/>
</clipPath>
<clipPath id="clip1_48_4744">
<rect width="16" height="16" fill="white" style="fill:white;fill-opacity:1;"/>
</clipPath>
</defs>
</svg>
